<svg width="18" height="18" viewBox="0 0 18 18" fill="none" xmlns="http://www.w3.org/2000/svg"><path fill-rule="evenodd" clip-rule="evenodd" d="M10.766 1.506a.64.64 0 00-.711.57.645.645 0 00.568.712 5.184 5.184 0 014.594 4.604.643.643 0 101.278-.144 6.462 6.462 0 00-5.73-5.742zm.048 2.61a.64.64 0 00-.753.511.647.647 0 00.508.757 2.596 2.596 0 012.057 2.063.644.644 0 00.755.51.649.649 0 00.508-.758 3.88 3.88 0 00-3.075-3.082zm1.186 7.2c.339-.195.721-.415 1.204-.313.436.092 1.926 1.301 2.334 1.72.267.275.416.558.439.841.04 1.112-1.47 2.38-1.745 2.539-.365.263-.79.395-1.268.395-.487 0-1.031-.138-1.624-.415C8.122 14.74 3.207 9.922 1.907 6.73c-.54-1.189-.543-2.169-.009-2.906.213-.345 1.427-1.79 2.513-1.744.29.025.57.173.846.443.417.409 1.595 1.902 1.687 2.34.1.488-.12.875-.317 1.216-.042.073-.099.16-.16.255-.235.36-.548.841-.437 1.148.793 1.945 2.623 3.643 4.57 4.44.3.11.78-.205 1.14-.44.094-.062.18-.118.252-.16l.008-.005z" fill="#636363"/></svg>