<svg width="27" height="27" viewBox="0 0 27 27" fill="none" xmlns="http://www.w3.org/2000/svg"><path clip-rule="evenodd" d="M12.901.16a12.93 12.93 0 00-5.199 1.343C4.892 2.91 2.676 5.313 1.53 8.197a12.676 12.676 0 00.843 11.106c.05.087.091.165.091.173 0 .009-.413 1.236-.919 2.727L.389 25.611l-.236.696.059-.018 3.553-1.129 3.494-1.11.317.162a12.885 12.885 0 004.011 1.284 13 13 0 005.707-.439 12.837 12.837 0 007.662-6.466 12.64 12.64 0 001.29-4.402c.042-.42.05-.586.059-1.093.01-.666-.017-1.2-.094-1.807a12.64 12.64 0 00-3.628-7.37 12.62 12.62 0 00-3.44-2.46A12.805 12.805 0 0014.127.165 21.404 21.404 0 0012.901.16zm-2.85 6.527c.16.044.289.174.4.401.036.072.233.585.44 1.14.206.554.418 1.122.472 1.26.17.438.168.431.163.57-.005.116-.008.13-.082.273a3.717 3.717 0 01-.155.27c-.087.134-.38.467-.673.766-.22.223-.254.28-.254.418 0 .113.032.195.184.459a9.446 9.446 0 001.507 1.995 8.324 8.324 0 001.83 1.397c.252.142.994.506 1.09.534a.418.418 0 00.386-.06c.1-.069.833-.876 1.09-1.2.201-.253.217-.268.312-.315a.273.273 0 01.193-.038c.057.004.154.024.22.047.182.061.84.396 2.081 1.06.768.41.828.45.86.566.023.08.019.392-.006.564-.047.325-.19.808-.302 1.024-.077.148-.17.266-.337.428a3.22 3.22 0 01-.6.455c-.438.265-.94.46-1.252.484a3.715 3.715 0 00-.296.046c-.521.099-1.025.013-2.004-.341-.58-.21-1.483-.582-1.922-.792-1.791-.855-3.568-2.547-4.956-4.718a30.038 30.038 0 00-.274-.423 8.221 8.221 0 01-.582-1.036c-.375-.816-.546-1.546-.52-2.222.03-.836.295-1.565.789-2.179a5.8 5.8 0 01.592-.604c.05-.037.142-.093.204-.124.181-.09.29-.114.56-.126.32-.015.751-.004.843.021z"/></svg>