<svg width="18" height="18" viewBox="0 0 18 18" fill="none" xmlns="http://www.w3.org/2000/svg"><path fill-rule="evenodd" clip-rule="evenodd" d="M8.179.018A9.15 9.15 0 003.43 1.914c-.685.529-1.575 1.522-2.089 2.332-.222.35-.654 1.236-.81 1.659a10.808 10.808 0 00-.448 1.757c-.11.687-.11 1.99 0 2.677a8.87 8.87 0 00.832 2.623c.465.95.948 1.622 1.722 2.397.774.776 1.446 1.26 2.394 1.725a8.833 8.833 0 002.62.832c.686.112 1.988.112 2.673 0a8.834 8.834 0 002.62-.832c.948-.465 1.62-.95 2.394-1.725.774-.775 1.258-1.447 1.723-2.396a7.95 7.95 0 00.63-1.677c.234-.892.271-1.235.291-2.7L18 7.275H8.988v3.451h5.305l-.105.273a5.792 5.792 0 01-1.02 1.68 5.418 5.418 0 01-1.736 1.322c-.815.398-1.346.527-2.268.553-.56.016-.712.009-1.087-.056A5.583 5.583 0 013.5 9.936a6.116 6.116 0 010-1.872 5.583 5.583 0 014.576-4.562c.566-.096 1.512-.081 2.036.033a5.834 5.834 0 011.966.828c.163.11.3.2.305.2.004 0 .401-.511.881-1.136.48-.625.95-1.234 1.042-1.353l.17-.217-.292-.21C13.045.823 11.662.277 10.201.07 9.768.008 8.584-.022 8.18.018z" fill="#99A3AF"/></svg>