<svg width="18" height="15" viewBox="0 0 18 15" fill="none" xmlns="http://www.w3.org/2000/svg"><path fill-rule="evenodd" clip-rule="evenodd" d="M11.661.06a3.27 3.27 0 00-.863.309 3.818 3.818 0 00-1.971 2.489c-.1.391-.135 1.138-.071 1.528l.036.221-.413-.028c-1.472-.1-3.089-.637-4.462-1.481-.758-.467-1.308-.914-2.051-1.67-.794-.807-.724-.789-.93-.252C.589 2.09.56 2.923.85 3.756c.226.647.705 1.355 1.187 1.755l.251.209H2.15c-.258 0-.82-.14-1.164-.291l-.343-.15v.223c0 .793.411 1.756 1.033 2.418.46.49.916.783 1.555 1.001l.354.121-.38.058c-.22.034-.572.049-.831.036-.528-.026-.514-.066-.196.553a3.758 3.758 0 001.562 1.592c.474.247.722.33 1.215.402l.392.058-.173.139a7.373 7.373 0 01-4.68 1.448c-.658-.025-.658-.024-.006.332 2.226 1.218 4.63 1.61 7.124 1.159 3.775-.682 6.777-3.42 8.01-7.302.331-1.045.508-2.15.508-3.17v-.6l.255-.194c.477-.365 1.214-1.168 1.536-1.676L18 1.752l-.207.09c-.45.197-1.76.549-1.819.49-.01-.01.125-.129.298-.264A3.836 3.836 0 0017.437.442l.058-.167-.539.263a8.619 8.619 0 01-1.588.588l-.21.052-.233-.215a3.71 3.71 0 00-1.639-.877c-.42-.103-1.227-.116-1.625-.026z" fill="#99A3AF"/></svg>