<svg width="16" height="14" viewBox="0 0 16 14" fill="none" xmlns="http://www.w3.org/2000/svg"><path fill-rule="evenodd" clip-rule="evenodd" d="M11.705.25A3.793 3.793 0 0115.5 4.037v5.926a3.793 3.793 0 01-3.795 3.787h-7.41A3.793 3.793 0 01.5 9.963V4.038A3.788 3.788 0 014.295.25h7.41zm1.193 4.905l.06-.06a.58.58 0 00-.008-.75.63.63 0 00-.397-.195.57.57 0 00-.42.15L8.75 7c-.435.36-1.058.36-1.5 0L3.875 4.3a.573.573 0 00-.803.802l.098.098 3.413 2.663a2.357 2.357 0 002.932 0l3.383-2.708z" fill="#4B58DB"/></svg>