<svg width="18" height="18" viewBox="0 0 18 18" fill="none" xmlns="http://www.w3.org/2000/svg"><path fill-rule="evenodd" clip-rule="evenodd" d="M11.014 2.025a4.519 4.519 0 00-3.88 3.337 4.642 4.642 0 00.011 2.32l.056.204-2.557 2.56c-1.406 1.407-2.576 2.598-2.6 2.646-.038.077-.044.247-.044 1.335 0 1.196.002 1.251.055 1.355.036.07.094.127.163.163.104.053.16.055 1.362.055h1.254l.122-.078a3.72 3.72 0 00.413-.379c.366-.376.373-.395.32-.856-.027-.23-.03-.337-.01-.344a7.72 7.72 0 01.453-.05c.476-.046.529-.06.633-.17.093-.101.12-.211.16-.688a2.94 2.94 0 01.051-.4c.01-.006.158.008.331.03.364.044.458.034.578-.067.14-.118.161-.204.161-.663v-.41h.409c.224 0 .443-.014.485-.03.043-.015.287-.234.542-.486a40.7 40.7 0 01.563-.546l.098-.09.272.069a4.47 4.47 0 002.116.038 4.095 4.095 0 001.069-.395c2.131-1.097 3.006-3.751 1.955-5.933a4.507 4.507 0 00-4.54-2.527zm2.048 2.167a1.224 1.224 0 01.314 2.14 1.1 1.1 0 01-.77.225c-.4-.018-.676-.157-.922-.466-.158-.199-.226-.398-.24-.696-.009-.207 0-.285.049-.431a1.27 1.27 0 01.749-.77 1.3 1.3 0 01.82-.002z" fill="#99A3AF"/></svg>