<?xml version="1.0" standalone="no"?>
<!DOCTYPE svg PUBLIC "-//W3C//DTD SVG 20010904//EN"
 "http://www.w3.org/TR/2001/REC-SVG-20010904/DTD/svg10.dtd">
<svg version="1.0" xmlns="http://www.w3.org/2000/svg"
 width="79.000000pt" height="67.000000pt" viewBox="0 0 79.000000 67.000000"
 preserveAspectRatio="xMidYMid meet">

<g transform="translate(0.000000,67.000000) scale(0.100000,-0.100000)"
fill="#000000" stroke="none">
<path d="M0 335 l0 -335 320 0 320 0 0 28 c0 20 24 64 75 136 78 111 86 132
59 143 -12 4 -34 -13 -75 -58 -32 -35 -58 -58 -59 -50 0 8 8 23 18 34 23 26
23 165 -1 221 -12 26 -17 66 -17 127 l0 89 -320 0 -320 0 0 -335z"/>
</g>
</svg>
