<?xml version="1.0" standalone="no"?>
<!DOCTYPE svg PUBLIC "-//W3C//DTD SVG 20010904//EN"
 "http://www.w3.org/TR/2001/REC-SVG-20010904/DTD/svg10.dtd">
<svg version="1.0" xmlns="http://www.w3.org/2000/svg"
 width="59.000000pt" height="69.000000pt" viewBox="0 0 59.000000 69.000000"
 preserveAspectRatio="xMidYMid meet">

<g transform="translate(0.000000,69.000000) scale(0.100000,-0.100000)"
fill="#000000" stroke="none">
<path d="M0 345 l0 -345 225 0 225 0 0 33 c0 23 8 41 26 58 14 13 37 43 50 65
14 23 33 44 44 47 17 4 20 14 20 61 0 51 -2 57 -25 66 -14 5 -25 14 -25 20 0
5 -16 28 -36 50 -30 33 -35 45 -30 68 13 53 12 57 -15 60 -36 4 -83 -37 -97
-86 -14 -46 -42 -77 -42 -46 1 11 7 30 15 44 8 14 14 48 14 75 0 28 -6 61 -14
75 -8 14 -14 42 -15 63 l0 37 -160 0 -160 0 0 -345z m463 0 c1 -5 -6 -11 -15
-13 -11 -2 -18 3 -18 13 0 17 30 18 33 0z"/>
</g>
</svg>
