<svg width="75" height="75" viewBox="0 0 75 75" fill="none" xmlns="http://www.w3.org/2000/svg"><path fill-rule="evenodd" clip-rule="evenodd" d="M32.076.15c-.188.075-.41.313-.491.529-.082.215-.15 1.916-.15 3.778v3.387l-.642.165c-3.655.939-6.184 1.962-8.862 3.588l-1.114.676-2.527-2.511c-2.278-2.263-2.58-2.512-3.044-2.512-.472 0-.832.316-4.262 3.745-3.43 3.43-3.747 3.79-3.747 4.262 0 .465.248.765 2.503 3.034l2.503 2.518-.688 1.164c-1.694 2.864-2.588 5.083-3.556 8.82l-.164.635-3.621.046c-3.237.04-3.65.074-3.891.315-.246.246-.274.715-.313 5.436-.03 3.525.009 5.294.123 5.57.282.68.661.745 4.308.745h3.39l.166.643c.97 3.749 1.863 5.962 3.558 8.829l.688 1.163-2.503 2.518c-2.255 2.269-2.503 2.57-2.503 3.034 0 .472.317.832 3.747 4.261 3.43 3.43 3.79 3.746 4.262 3.746.465 0 .766-.248 3.044-2.51l2.527-2.512 1.114.676c2.678 1.626 5.207 2.65 8.862 3.588l.643.165v3.39c0 3.599.066 4.003.704 4.294.51.232 10.18.232 10.69 0 .639-.29.705-.695.705-4.295v-3.389l.643-.166c2.16-.56 3.085-.854 4.53-1.442 1.896-.773 3.08-1.357 4.457-2.2l1-.611 2.522 2.506c2.272 2.258 2.573 2.506 3.038 2.506.472 0 .832-.316 4.262-3.745 3.43-3.43 3.747-3.79 3.747-4.262 0-.465-.248-.765-2.496-3.028L62.74 54.19l.969-1.697a36.903 36.903 0 001.725-3.547c.676-1.652.968-2.557 1.54-4.76l.166-.644h3.39c3.6 0 4.004-.066 4.295-.704.232-.51.232-10.178 0-10.688-.291-.638-.696-.704-4.295-.704h-3.39l-.167-.643c-.97-3.749-1.863-5.962-3.558-8.828l-.688-1.164 2.503-2.518c2.255-2.269 2.503-2.57 2.503-3.034 0-.472-.316-.832-3.747-4.261-3.43-3.43-3.79-3.746-4.262-3.746-.465 0-.766.248-3.038 2.506l-2.523 2.506-1.002-.613c-2.65-1.622-5.236-2.67-8.984-3.64l-.643-.166v-3.39c0-3.599-.066-4.003-.704-4.294-.454-.206-10.242-.217-10.755-.01zm9.04 5.652c0 1.864.042 3.5.093 3.634.142.368.752.626 2.16.912 2.892.588 6.276 1.971 8.98 3.671 1.721 1.081 1.95 1.17 2.41.936.19-.097 1.384-1.206 2.653-2.465l2.307-2.288 2.53 2.528 2.529 2.53-2.367 2.384c-1.416 1.426-2.408 2.548-2.468 2.791-.084.334.081.699.919 2.033 1.695 2.7 2.96 5.684 3.624 8.546.723 3.122.284 2.85 4.61 2.85h3.478v7.259h-3.479c-4.325 0-3.886-.273-4.61 2.849-.663 2.862-1.928 5.846-3.623 8.546-.838 1.334-1.003 1.699-.92 2.033.061.243 1.053 1.365 2.469 2.791l2.367 2.385-2.527 2.526-2.527 2.527-2.385-2.367c-1.426-1.415-2.549-2.407-2.792-2.467-.334-.084-.7.081-2.039.922-2.873 1.803-6.185 3.17-9.138 3.77-1.409.286-2.02.543-2.16.912-.052.134-.095 1.77-.095 3.634v3.39h-7.26v-3.412c0-1.895-.064-3.533-.145-3.684-.183-.343-.646-.524-2.35-.917-3.425-.793-5.935-1.84-8.97-3.74-1.275-.8-1.633-.959-1.966-.875-.243.06-1.365 1.052-2.792 2.468l-2.385 2.366-2.527-2.527-2.527-2.526 2.36-2.385c1.3-1.311 2.405-2.528 2.459-2.704.13-.424-.044-.831-.89-2.1-1.484-2.22-2.994-5.771-3.633-8.543-.725-3.147-.285-2.873-4.613-2.873H2.397v-7.259h3.479c4.328 0 3.888.275 4.613-2.872.64-2.772 2.149-6.323 3.632-8.544.847-1.268 1.02-1.675.89-2.099-.053-.176-1.159-1.393-2.457-2.704l-2.36-2.385 2.526-2.526 2.527-2.527 2.385 2.36c1.312 1.298 2.539 2.407 2.726 2.464.392.12.55.045 2.79-1.317 2.503-1.522 5.98-2.88 8.817-3.444 1.062-.21 1.665-.49 1.797-.833.051-.134.094-1.77.094-3.634v-3.39h7.26v3.39zm-6.277 8.801c-6.036.908-10.746 3.394-14.596 7.705-2.598 2.909-4.42 6.532-5.326 10.598-.283 1.266-.332 1.948-.332 4.587s.049 3.321.331 4.587c2.054 9.204 8.786 15.93 17.992 17.975 1.248.278 1.958.329 4.578.331 2.633.003 3.32-.046 4.565-.324 9.22-2.058 15.956-8.79 18.001-17.992.278-1.248.329-1.958.332-4.577.002-2.633-.047-3.32-.325-4.564-.9-4.034-2.722-7.678-5.29-10.585-3.318-3.758-7.656-6.3-12.618-7.394-1.06-.234-2.096-.325-4.136-.364-1.497-.028-2.927-.02-3.176.017zm7.184 2.833c3.88.904 7.162 2.727 9.98 5.543 2.923 2.924 4.782 6.381 5.69 10.583.39 1.806.39 6.054 0 7.855-1.385 6.406-5.393 11.656-11.057 14.485-.666.332-1.363.651-1.55.71l-.34.105V34.78l-3.215-6.393c-3.07-6.107-3.236-6.398-3.71-6.529-.993-.273-1.03-.218-4.438 6.605l-3.157 6.322v21.933l-.34-.105c-.188-.059-.885-.378-1.55-.71-5.67-2.831-9.672-8.074-11.059-14.486-.429-1.984-.394-6.06.07-8.145 1.954-8.777 8.92-15.111 17.87-16.248.291-.038 1.584-.043 2.873-.012 1.804.042 2.71.14 3.933.425zm-3.665 10.001l.79 1.588h-3.324l.79-1.588c.434-.873.826-1.587.872-1.587.045 0 .437.714.872 1.587zm2.909 5.822l.91 1.815h-9.382l.91-1.815.91-1.814h5.742l.91 1.814zm-7.411 14.35v10.114l-.605-.153-.605-.154V37.493h1.21v10.115zm4.84.166v10.283h-2.42V37.493h2.42v10.282zm3.63-.32v9.961l-.606.154-.605.153v-20.23h1.21v9.962z" fill="#FAD23C"/></svg>