<svg width="38" height="38" viewBox="0 0 38 38" fill="none" xmlns="http://www.w3.org/2000/svg"><path d="M10.564 37.33c-.689-.306-.995-.766-.918-1.53v-1.225H3.753c-.919 0-1.378-.46-1.378-1.378v-1.148c0-.383.23-.612.536-.612.306 0 .535.23.535.612v1.148c0 .153.077.23.23.23h5.97v-3.521c-1.454-.918-1.914-1.53-2.143-3.214-.919 0-1.837-.077-2.679 0-.765.076-1.301.918-1.378 1.76v1.071c0 .383-.23.613-.535.613-.306 0-.536-.23-.536-.613V28.3c.077-.919.536-1.684 1.301-2.22.077-.076.153-.076.23-.153-.306-.995-.69-1.913-.919-2.831-1.224-4.899-.459-9.414 2.373-13.623.153-.23.23-.383.076-.69a1.983 1.983 0 01.383-2.295c.612-.612 1.454-.842 2.296-.46.153.154.306.077.46-.076.918-.612 1.76-1.224 2.678-1.837.383-.23.689-.153.842.153.153.306 0 .536-.306.766-.842.612-1.684 1.148-2.526 1.76-.153.076-.153.23-.077.383.307.765.154 1.53-.382 2.066-.536.612-1.225.842-2.067.612-.23-.076-.306 0-.459.153-1.53 2.22-2.449 4.669-2.678 7.424-.307 2.755.153 5.357 1.224 7.883.077.23.23.306.536.306h3.138c.076-.306 0-.46-.153-.612-.919-.765-1.531-1.684-1.684-2.832 0-.23-.077-.306-.306-.382-1.378-.383-1.837-2.067-.842-3.138.076-.077.153-.306.153-.46V14.83c0-1.684 1.071-2.908 2.602-3.215.23-.076.536-.076.765-.076h3.444c.766 0 1.531.23 2.143.765.077.077.23.077.307.077.688-.306 1.377-.383 2.142-.383h1.072c.306 0 .536.23.612.536 0 .306-.23.536-.612.536h-1.607a2.602 2.602 0 00-2.602 2.449c-.077 1.148 0 2.296 0 3.444v.153c.306.076.306-.077.382-.306a6.04 6.04 0 01.919-2.296c.306-.383.459-.46.918-.307 1.454.46 2.832.842 4.362.995.383 0 .842 0 1.225-.076.23-.077.536-.23.689-.383.306-.306.689-.306.918.077.383.612.689 1.3.765 1.99 0 .153.077.382.307.306V16.59c0-.383-.077-.612-.536-.612-.306-.077-.46-.306-.46-.612 0-.613-.229-1.072-.612-1.531a2.17 2.17 0 00-1.683-.765h-.613a.523.523 0 01-.535-.536c0-.306.23-.536.535-.536.842-.076 1.684.077 2.373.46.765-.766 1.684-.996 2.679-.919h3.367c1.454 0 2.602.918 2.985 2.296 0 .077.076.23.23.306.459.306.688.765.688 1.301v2.602c0 .153.077.383.23.46.995 1.071.536 2.678-.842 3.137-.23.077-.23.154-.306.306-.23 1.148-.766 2.143-1.684 2.909-.153.076-.153.306-.306.459l.076.076h3.215c.306 0 .383-.076.536-.306 1.071-2.525 1.454-5.127 1.224-7.806-.23-2.679-1.148-5.128-2.602-7.347-.153-.23-.306-.306-.536-.23-.765.23-1.454 0-1.99-.612-.535-.612-.688-1.301-.382-2.066-.077 0-.153-.154-.306-.307-2.22-1.76-4.745-2.908-7.577-3.367-.306-.077-.46 0-.612.306-.766 1.378-2.756 1.301-3.52 0-.154-.23-.307-.306-.537-.23l-2.755.69a.845.845 0 01-.612 0c-.153-.077-.306-.307-.23-.46.077-.153.23-.46.383-.46.918-.305 1.76-.458 2.679-.688h.153c.459 0 .689-.153.841-.612.383-.919 1.072-1.301 1.99-1.301.842.076 1.531.459 1.837 1.3.153.307.306.383.612.46 3.062.46 5.74 1.607 8.113 3.597.23.153.383.23.689.077a2.013 2.013 0 012.22.535c.535.613.688 1.531.305 2.296-.076.153-.153.306 0 .536 3.444 5.128 3.904 10.562 1.608 16.302 0 .076-.077.153-.077.23.153.076.23.152.383.305.765.613 1.148 1.378 1.148 2.373v4.668c0 .919-.46 1.378-1.378 1.378h-5.893v1.225c.077.765-.23 1.224-.918 1.53-5.893-.076-11.633-.076-17.45-.076zm12.552-8.725c-.23 2.449-2.067 3.75-3.827 3.75-.919 0-1.684-.23-2.373-.842-.995-.765-1.454-1.76-1.53-2.985h-2.45c-1.377 0-2.219.842-2.219 2.22v5.051c0 .306.077.46.46.46h16.3c.153 0 .383.076.383-.23v-5.434c0-.995-.842-1.913-1.76-1.913-1.072-.154-1.99-.077-2.985-.077zm-.23-10.485c-2.45.842-4.592-.077-6.811-.612-.077.076-.154.153-.154.306-.382.535-.535 1.148-.535 1.76 0 1.301-.077 2.602.076 3.827.23 1.99 2.067 3.444 4.056 3.29 1.99-.152 3.598-1.76 3.598-3.75v-3.444c0-.459-.154-.918-.23-1.377zM7.962 16.972c-.077.46-.23.842-.306 1.224a27.017 27.017 0 000 3.52c.153 2.067 1.99 3.445 3.98 3.139.995-.153 1.836-.765 2.372-1.607-.076 0-.153-.077-.153-.077-1.301-.536-1.76-1.76-1.072-2.985 0-.076.077-.076.077-.153v-2.22c-1.684 0-3.214-.382-4.898-.841zm27.016 16.531v-5.128c0-.765-.612-1.53-1.377-1.607-.919-.076-1.76 0-2.68 0-.229 1.684-.688 2.373-2.142 3.215v3.52h6.2zM24.493 23.171c0 .077.077.153.077.153.765 1.148 2.296 1.76 3.597 1.454 1.454-.382 2.525-1.53 2.602-2.984a23.78 23.78 0 000-3.291c0-.383-.153-.842-.153-1.225-1.76.842-3.368.306-5.051 0v2.296c0 .23.076.383.153.536.535 1.071.153 2.372-.995 2.832-.077.152-.153.23-.23.23zm-.689-9.95l.69 1.608c.076.23.152.306.305.46.23.229.46.458.689.764l.306.307c.536.153.995.306 1.53.306.766.076 1.455.076 2.22 0 .23 0 .383-.306.536-.46.153-.152.306-.382.46-.382.152 0 .382.153.535.306a4.1 4.1 0 01.536.995v-1.607c0-.077-.153-.23-.23-.306-.383-.077-.536-.306-.536-.69-.076-.994-.841-1.76-1.836-1.76h-3.904c-.535-.076-.995.154-1.3.46zm-16.99 3.75c.153-.229.306-.458.383-.688.306-.46.459-.536.995-.383.765.23 1.53.383 2.296.613.765.153 1.607.306 2.449.153-.077-1.301.076-2.526.995-3.444-.383-.306-.766-.46-1.225-.46H8.88c-1.148 0-1.99.766-2.066 1.914-.077.689 0 1.53 0 2.296zM20.82 27.535c-1.225.306-1.608.382-3.215 0 .23.918-.306 1.148-1.071.994.076 1.531 1.3 2.756 2.831 2.756 1.531-.077 2.756-1.301 2.68-2.68-.307-.076-.69-.076-.843-.229-.306-.153-.306-.535-.383-.841zM10.028 28.91c.383-.383.766-.689 1.148-.995.613-.383 1.225-.46 1.99-.46.153 0 .306-.076.306-.152.077-.153.077-.383.153-.689-.688.077-1.148-.076-1.071-.918a5.112 5.112 0 01-2.832.076c-.076.306-.153.613-.306.765-.153.154-.536.154-.765.23-.077.842.535 1.76 1.377 2.143zm15.92-3.138c-.154.765-.154.765-.996.919-.076.688 0 .765.69.765.841 0 1.606.23 2.219.842.23.153.382.383.612.612.918-.383 1.607-1.454 1.454-2.22-.842-.076-.918 0-.995-.918-1.071.306-1.99.23-2.985 0zM7.272 8.936c.536 0 .995-.46.995-.995 0-.536-.46-.995-.918-.995-.536 0-.995.383-.995.918a.93.93 0 00.918 1.072zm11.94-5.357c.535 0 .994-.46.994-.995 0-.536-.459-.919-.995-.995-.535 0-.995.459-.995.995.077.612.46.995.995.995zm12.015 5.357c.536 0 .995-.46.995-.995 0-.536-.383-.918-.918-.995-.536 0-.995.383-.995.918a.93.93 0 00.918 1.072zm-14.77 18.52c.076-.458-.077-.764-.383-.764-.46-.077-.919 0-1.455 0 0 .306-.076.535-.076.765h1.913zm7.346-.764h-1.148c-.535 0-.765.23-.612.765h1.913c-.076-.306-.076-.536-.153-.765zm1.072-1.148c0-.69-.689-.766-.919-1.225l-.612 1.225h1.53zm-9.797 0c-.23-.383-.382-.766-.612-1.148-.23.23-.382.382-.612.535-.23.153-.46.306-.306.613h1.53zm-.841-3.444v-1.76c-.46.076-.69.382-.69.765 0 .459.23.841.69.995zm9.949-1.76v1.76c.46-.077.689-.46.689-.842.076-.46-.23-.766-.689-.919zM6.584 19.267c-.382.153-.535.46-.535.765 0 .306.153.536.535.689v-1.454zm25.333 1.454c.383-.153.536-.383.536-.765 0-.306-.154-.536-.536-.69v1.455z" fill="#fff"/></svg>