<svg width="39" height="35" viewBox="0 0 39 35" fill="none" xmlns="http://www.w3.org/2000/svg"><path d="M2.549 30.454h17.099v1.9a1.9 1.9 0 001.9 1.9h2.533c.554 0 1.079-.247 1.435-.663.01 0 .02 0 .03-.01a2.48 2.48 0 001.701.673h7.6a1.9 1.9 0 001.9-1.9c0-.326-.09-.653-.258-.93a1.868 1.868 0 00.634-2.533c.475-.297.791-.792.87-1.346a1.863 1.863 0 00-.474-1.524 1.883 1.883 0 00.326-2.038 1.914 1.914 0 00-1.741-1.128h-1.9V3.223A2.538 2.538 0 0031.67.689H2.55A2.538 2.538 0 00.016 3.223V27.92a2.538 2.538 0 002.533 2.533zm21.532 2.534h-2.533a.638.638 0 01-.634-.634v-5.7c0-.346.287-.633.634-.633h2.533c.346 0 .633.287.633.634v5.7a.638.638 0 01-.633.633zm12.666-8.233a.638.638 0 01-.633.633h-1.9a.638.638 0 00-.634.633c0 .347.287.634.634.634h1.9c.346 0 .633.287.633.633a.638.638 0 01-.633.633h-1.9a.638.638 0 00-.634.634c0 .346.287.633.634.633h1.266c.347 0 .634.287.634.633a.638.638 0 01-.634.633h-1.266a.638.638 0 00-.634.634c0 .346.287.633.634.633h.633c.346 0 .633.287.633.633a.638.638 0 01-.633.634h-7.6a1.263 1.263 0 01-1.266-1.267v-5.334a4.048 4.048 0 001.682-2.137c.564-1.692.851-3.463.851-5.244 0-.09.06-.159.139-.188.217-.04.781-.139 1.316.91a4.26 4.26 0 01.435 1.95v1.81c0 .346.287.633.633.633h5.067a.64.64 0 01.643.634zm-5.067-1.9v-1.178a5.578 5.578 0 00-.573-2.523c-.624-1.217-1.574-1.781-2.672-1.583a1.454 1.454 0 00-1.188 1.435 15.54 15.54 0 01-.781 4.848 2.8 2.8 0 01-1.099 1.425 1.936 1.936 0 00-1.286-.514h-2.533a1.9 1.9 0 00-1.9 1.9v2.533h-17.1a1.263 1.263 0 01-1.266-1.267V7.022h31.665v15.833H31.68zM2.55 1.956h29.13c.703 0 1.267.564 1.267 1.267v2.533H1.282V3.223c0-.703.564-1.267 1.267-1.267z" fill="#fff"/><path fill-rule="evenodd" clip-rule="evenodd" d="M3.816 3.856a.638.638 0 01-.634.633.638.638 0 01-.633-.633c0-.346.287-.633.633-.633.347 0 .634.287.634.633zm2.533 0a.638.638 0 01-.634.633.638.638 0 01-.633-.633c0-.346.287-.633.633-.633.347 0 .634.287.634.633zm2.533 0a.638.638 0 01-.633.633.638.638 0 01-.634-.633c0-.346.287-.633.634-.633.346 0 .633.287.633.633z" fill="#fff"/><path d="M5.082 20.322h10.133a1.9 1.9 0 001.9-1.9v-7.6a1.9 1.9 0 00-1.9-1.9H5.082a1.9 1.9 0 00-1.9 1.9v7.6a1.9 1.9 0 001.9 1.9zm1.553-1.267l2.93-4.611 1.405 1.761-1.801 2.85H6.635zm8.58 0h-4.542l3.335-5.245 1.84 2.306v2.316a.636.636 0 01-.633.623zM4.448 10.822c0-.346.287-.633.634-.633h10.133c.346 0 .633.287.633.633v3.266l-1.405-1.762a.642.642 0 00-.524-.238.637.637 0 00-.505.297l-1.712 2.692-1.692-2.118a.642.642 0 00-.525-.237.636.636 0 00-.504.297l-3.84 6.036h-.06a.638.638 0 01-.633-.633v-7.6z" fill="#fff"/><path fill-rule="evenodd" clip-rule="evenodd" d="M6.982 12.088a.638.638 0 01-.634.634.638.638 0 01-.633-.634c0-.346.287-.633.633-.633.347 0 .634.287.634.633zm23.432-2.533H19.647a.638.638 0 00-.633.633c0 .346.287.633.633.633h10.767a.638.638 0 00.633-.633.638.638 0 00-.633-.633zm0 2.534H19.647a.638.638 0 00-.633.633c0 .347.287.633.633.633h10.767a.638.638 0 00.633-.633.638.638 0 00-.633-.633zm0 2.532H19.647a.638.638 0 00-.633.633c0 .347.287.634.633.634h10.767a.638.638 0 00.633-.634.638.638 0 00-.633-.633zm-5.067 2.534h-5.7a.638.638 0 00-.633.634c0 .346.287.633.633.633h5.7a.638.638 0 00.633-.633.638.638 0 00-.633-.634zm-6.965 5.7H3.815a.638.638 0 00-.633.633c0 .346.287.633.633.633h14.567a.638.638 0 00.633-.633.638.638 0 00-.633-.633zm-1.9 2.532H3.815a.638.638 0 00-.633.633c0 .346.287.633.633.633h12.667a.638.638 0 00.633-.633.638.638 0 00-.633-.633z" fill="#fff"/></svg>