<svg width="36" height="39" viewBox="0 0 36 39" fill="none" xmlns="http://www.w3.org/2000/svg"><path d="M17.552 38.258c-.704-.163-1.355-.38-1.788-.976-.271-.38-.488-.867-.705-1.3-.108-.217-.163-.326-.38-.38a16.105 16.105 0 01-4.12-1.41 16.1 16.1 0 01-5.311-4.227c-.163-.217-.325-.217-.542-.163-1.355.488-2.819-.108-3.524-1.355-.704-1.301-.433-2.873.76-3.74.216-.163.27-.326.162-.597a16.268 16.268 0 010-9.648c.054-.217.054-.38-.163-.542-1.192-.867-1.518-2.44-.813-3.74.705-1.301 2.168-1.843 3.578-1.355.27.108.38 0 .542-.163a16.102 16.102 0 015.312-4.228c1.247-.65 2.602-1.084 3.957-1.355.325-.054.542-.163.65-.596.217-1.301 1.464-2.169 2.819-2.169s2.548.976 2.819 2.277c.054.325.216.434.488.488 2.222.434 4.227 1.3 6.07 2.602 1.247.867 2.331 1.843 3.253 2.981.162.217.325.271.596.163 1.3-.488 2.819.108 3.523 1.3.705 1.302.434 2.873-.704 3.74-.217.163-.271.326-.217.597.975 3.198.975 6.45 0 9.648-.054.217-.054.38.163.543 1.084.813 1.463 2.33.92 3.577-.595 1.301-2.005 2.06-3.306 1.68-.596-.162-.867 0-1.246.434-2.385 2.71-5.42 4.445-8.944 5.204-.325.054-.542.217-.596.596-.326 1.138-1.084 1.789-2.169 2.114-.108 0-.162.054-.27.054-.326-.054-.543-.054-.814-.054zm.38-27.265c-4.553 0-8.294 3.74-8.294 8.293 0 4.553 3.74 8.294 8.294 8.294 4.553 0 8.293-3.74 8.293-8.294 0-4.553-3.74-8.293-8.293-8.293zm-2.819-6.83c-3.74.705-6.776 2.548-9.16 5.475.65.813.867 1.68.65 2.656 0 .108.108.217.162.27l2.114 1.14c.326.162.65.379.976.541 1.952-2.873 4.608-4.445 8.077-4.445 3.469 0 6.07 1.627 8.022 4.445.922-.488 1.789-.975 2.656-1.463.434-.217.705-.434.596-1.03-.162-.813.163-1.518.705-2.168-2.385-2.928-5.42-4.77-9.16-5.475-.38 1.138-1.139 1.789-2.277 2.06v2.385H17.28V6.169c-1.03-.271-1.788-.922-2.168-2.006zm-9.16 24.772c2.439 2.927 5.42 4.77 9.16 5.475.38-1.085 1.138-1.79 2.277-2.06v-2.385h1.192v2.385c1.139.27 1.843.975 2.223 2.06 3.74-.76 6.775-2.548 9.16-5.475-.704-1.084-.759-1.41-.65-2.656a.414.414 0 00-.109-.271c-1.03-.597-2.114-1.139-3.198-1.735-1.951 2.873-4.607 4.445-8.076 4.445-3.47 0-6.125-1.626-8.077-4.445-1.084.596-2.114 1.138-3.144 1.735-.054.054-.162.162-.108.27.217 1.03-.054 1.898-.65 2.657zm3.36-5.692c-1.138-2.656-1.138-5.312 0-7.968-1.138-.596-2.222-1.247-3.36-1.843-.76.813-1.627 1.138-2.71 1.03-.977 3.198-.977 6.342 0 9.54 1.083-.108 1.95.271 2.71 1.03 1.138-.542 2.222-1.138 3.36-1.789zm20.598 1.843c.705-.704 1.518-1.138 2.548-1.084.054 0 .216-.162.27-.217a14.58 14.58 0 00.651-5.312c-.054-1.355-.27-2.656-.759-3.957-1.03.109-1.897-.217-2.602-.921-.054-.055-.216-.055-.325 0-.488.27-.975.542-1.41.759-.541.325-1.137.596-1.68.921 1.139 2.656 1.139 5.312 0 7.968a64.796 64.796 0 003.307 1.843zM17.931 5.03c.976 0 1.79-.813 1.79-1.734 0-.976-.76-1.789-1.735-1.789-.976 0-1.789.813-1.789 1.789-.054.921.76 1.734 1.735 1.734zM5.466 11.59c0-.977-.814-1.79-1.79-1.79-.975 0-1.788.813-1.788 1.79 0 .975.813 1.734 1.789 1.734 1.03 0 1.789-.813 1.789-1.735zm28.457 0c0-.977-.813-1.79-1.734-1.79-.976 0-1.79.76-1.79 1.735 0 .976.814 1.789 1.79 1.789.921.054 1.734-.76 1.734-1.735zM5.465 26.982c0-.975-.814-1.788-1.79-1.788-.975 0-1.788.813-1.788 1.788 0 .976.813 1.79 1.789 1.79a1.77 1.77 0 001.789-1.79zm28.457 0c0-.975-.813-1.788-1.734-1.788-.976 0-1.79.758-1.79 1.734s.814 1.789 1.79 1.789c.921.054 1.734-.759 1.734-1.735zm-15.99 6.56c-.976 0-1.789.812-1.789 1.734 0 .975.813 1.788 1.789 1.788.975 0 1.789-.813 1.789-1.788 0-.976-.814-1.735-1.79-1.735z" fill="#fff"/><path d="M16.035 18.58c-1.138-1.029-1.301-2.276-.976-3.631.325-1.41 1.735-2.331 3.09-2.223 1.572.163 2.602 1.356 2.71 2.928.055 1.084-.162 2.06-1.084 2.873.163.108.326.27.488.38a68.215 68.215 0 002.656 1.571c.217.109.326.271.271.542v1.572c.055.705-.325 1.193-.921 1.41a7.574 7.574 0 01-1.843.433c-1.952.163-3.957.217-5.909-.108-.325-.054-.65-.163-.976-.271-.65-.271-1.03-.759-.975-1.464v-1.626c0-.217.054-.325.216-.434.922-.542 1.79-1.084 2.71-1.626.218-.054.38-.162.543-.325zm1.572 4.88c1.084-.055 1.843-.055 2.602-.109.488-.054 1.03-.162 1.518-.27.27-.055.325-.218.325-.489.163-.867-.162-1.463-1.03-1.789a1.183 1.183 0 01-.27-.162c-.651-.434-1.302-.922-1.952-1.355-.055-.055-.217-.055-.326-.055h-1.246c-.109 0-.272 0-.326.055-.704.758-1.626 1.192-2.493 1.68-.542.325-.813.65-.705 1.301.054.759.054.759.759.976h.108c1.193.054 2.277.162 3.036.217zm-1.464-7.481v.488c.055.921.813 1.572 1.68 1.626.868.054 1.681-.542 1.79-1.41.054-.487.054-.975-.055-1.409-.27-1.084-1.572-1.626-2.547-1.084-.596.38-.868 1.03-.868 1.789zm2.386-12.141h-1.138V2.699h1.138v1.139zM4.271 12.13H3.133v-1.14H4.27v1.139zm28.459-1.139v1.139h-1.138v-1.14h1.138zM4.271 27.579H3.133V26.44H4.27v1.139zM32.73 26.44v1.139h-1.138V26.44h1.138zm-14.201 8.294v1.139h-1.138v-1.139h1.138z" fill="#fff"/></svg>