<svg width="351" height="346" viewBox="0 0 351 346" fill="none" xmlns="http://www.w3.org/2000/svg"><path opacity=".5" d="M316.606 65.664C311.259 58.329 265.488-2.33 191.297.626c-3.708.147-76.066 3.977-102.754 51.526-19.742 35.173 1.16 66.379-22.925 90.344-20.99 20.881-46.776 7.059-59.672 23.945-19.644 25.72 11.634 95.186 59.705 133.928 49.631 40.001 144.581 69.348 218.385 15.979 82.849-59.92 82.013-182.861 32.57-250.684z" fill="url(#paint0_linear_1458_23844)" fill-opacity=".5"/><path d="M85.64 219.086a159.275 159.275 0 01-20.612-1.358l.08-.608c44.299 5.781 72.758-8.726 75.872-10.408-15.57-24.262-4.565-59.961-4.451-60.318l.584.185c-.112.356-11.114 36.055 4.56 60.077l.176.27-.28.162c-.251.14-21.158 11.998-55.929 11.998z" fill="#fff"/><path d="M113.002 188.082a1.732 1.732 0 01-1.723-1.568c-1.517-15.923-6.709-31.053-14.619-42.601-7.007-10.231-15.348-16.336-22.318-16.336h-.021c-25.386.049-30.697 58.331-30.747 58.927a1.732 1.732 0 01-1.871 1.533 1.734 1.734 0 01-1.583-1.829c.218-2.529 5.653-62.036 34.193-62.089h.03c8.236 0 17.41 6.501 25.179 17.844 8.234 12.025 13.636 27.733 15.208 44.23a1.733 1.733 0 01-1.56 1.897 1.925 1.925 0 00-.168-.008z" fill="url(#paint1_linear_1458_23844)"/><path d="M7.244 308.033l33.418 16.919 20.254-62.133-33.368-83.303-9.46 2.319L3.733 301.46a6.491 6.491 0 003.511 6.573z" fill="url(#paint2_linear_1458_23844)"/><path style="mix-blend-mode:multiply" opacity=".52" d="M60.917 262.819l-33.369-83.303-5.579 1.373a181.371 181.371 0 00.092 26.935c2.236 28.36 9.664 36.252 6.07 56.037-2.992 16.45-9.526 18.683-8.955 29.752.622 12.053 9.03 22.148 19.026 30.085l2.466 1.248 20.249-62.127z" fill="url(#paint3_linear_1458_23844)"/><path d="M27.548 179.521h124.6l41.236 133.125-152.722 12.305-13.114-145.43z" fill="url(#paint4_linear_1458_23844)"/><path d="M66.147 190.931a1.73 1.73 0 01-1.69-1.338c-.354-1.51-8.54-37.177 3.002-54.687 3.308-5.017 7.931-8.081 13.738-9.105 29.843-5.258 48.21 58.83 48.978 61.562a1.738 1.738 0 01-.134 1.341 1.73 1.73 0 01-2.391.671 1.753 1.753 0 01-.515-.455 1.752 1.752 0 01-.297-.62c-.18-.633-18.264-63.813-45.039-59.086-4.9.865-8.644 3.351-11.445 7.6-10.731 16.273-2.605 51.632-2.522 51.988a1.734 1.734 0 01-1.685 2.129z" fill="url(#paint5_linear_1458_23844)"/><path style="mix-blend-mode:multiply" opacity=".3" d="M152.148 179.516H90.335c-3.049 3.101-5.213 6.674-5.42 10.684-.971 18.842 42.329 25.023 46.506 50.834 3.012 18.623-15.524 40.11-32.062 49.683-17.426 10.086-29.233 4.978-41.018 16.176-5.177 4.92-8.33 11.072-10.206 17.45l145.249-11.703-41.236-133.124z" fill="url(#paint6_linear_1458_23844)"/><path d="M70.944 191.98a4.843 4.843 0 10-9.562-1.552 4.843 4.843 0 009.562 1.552z" fill="url(#paint7_linear_1458_23844)"/><path d="M134.818 190.92a4.857 4.857 0 10-9.59-1.548 4.857 4.857 0 009.59 1.548z" fill="url(#paint8_linear_1458_23844)"/><path d="M243.629 41.429a111500.909 111500.909 0 0032.469 271.554c.486 4.016-2.288 7.567-6.17 7.898a32616.36 32616.36 0 00-130.493 12.645c-7.759.38-12.02-3.959-12.518-8.299a126498.86 126498.86 0 01-33.42-293.094c-.507-4.433 3.255-8.243 11.015-7.864 43.712 3.12 87.423 6.196 131.132 9.231 3.91.258 7.5 3.823 7.985 7.929z" fill="#26264F"/><path d="M249.67 41.24a110210.983 110210.983 0 0032.673 272.716c.49 4.029-2.301 7.601-6.209 7.934a41281.737 41281.737 0 00-135.5 11.703c-4.121.367-7.909-2.898-8.411-7.259A125391.052 125391.052 0 0198.586 31.875c-.506-4.452 2.485-7.869 6.635-7.587 45.47 3.035 90.94 6.032 136.411 8.99 3.937.261 7.55 3.839 8.038 7.961z" fill="url(#paint9_linear_1458_23844)"/><path d="M247.046 56.268a108995.85 108995.85 0 0030.263 252.869c.457 3.772-2.15 7.103-5.802 7.4a40790.42 40790.42 0 00-127.43 10.622c-3.838.329-7.366-2.727-7.841-6.779a120584.78 120584.78 0 01-31.095-271.764c-.469-4.138 2.312-7.34 6.174-7.111 42.741 2.488 85.483 4.95 128.224 7.387 3.677.207 7.052 3.538 7.507 7.376z" fill="url(#paint10_linear_1458_23844)"/><path d="M247.046 56.268a108995.85 108995.85 0 0030.263 252.869c.457 3.772-2.15 7.103-5.802 7.4a40790.42 40790.42 0 00-127.43 10.622c-3.838.329-7.366-2.727-7.841-6.779a120584.78 120584.78 0 01-31.095-271.764c-.469-4.138 2.312-7.34 6.174-7.111 42.741 2.488 85.483 4.95 128.224 7.387 3.677.207 7.052 3.538 7.507 7.376z" fill="url(#paint11_linear_1458_23844)"/><path d="M239.544 48.89c-42.235-2.408-84.471-4.841-126.706-7.3a96.88 96.88 0 007.42 24.004c14.01 30.395 34.592 32.068 42.643 58.548 8.295 27.287-10.412 35.827-1.274 60.464 9.918 26.733 34.243 22.864 47.098 52.188 11.081 25.276-3.184 36.83 8.274 52.19 12.559 16.835 35.793 11.128 59.909 16.83a110184.177 110184.177 0 01-29.861-249.545c-.455-3.839-3.83-7.17-7.503-7.38z" fill="url(#paint12_linear_1458_23844)" opacity=".35"/><path d="M177.854 37.67c.172 1.48-.823 2.613-2.221 2.529-1.399-.085-2.676-1.357-2.848-2.844-.172-1.488.824-2.623 2.224-2.53 1.4.094 2.673 1.362 2.845 2.844z" fill="#DE8BDF"/><path d="M193.112 119.926c5.399 0 9.776-5.163 9.776-11.532 0-6.37-4.377-11.533-9.776-11.533s-9.776 5.163-9.776 11.533c0 6.369 4.377 11.532 9.776 11.532z" fill="#DD51D4"/><path d="M193.112 119.926c5.399 0 9.776-5.163 9.776-11.532 0-6.37-4.377-11.533-9.776-11.533s-9.776 5.163-9.776 11.533c0 6.369 4.377 11.532 9.776 11.532z" fill="#000" fill-opacity=".2"/><path d="M232.026 119.926c5.398 0 9.775-5.163 9.775-11.532 0-6.37-4.377-11.533-9.775-11.533-5.399 0-9.775 5.163-9.775 11.533 0 6.369 4.376 11.532 9.775 11.532z" fill="#DD51D4"/><path d="M232.026 119.926c5.398 0 9.775-5.163 9.775-11.532 0-6.37-4.377-11.533-9.775-11.533-5.399 0-9.775 5.163-9.775 11.533 0 6.369 4.376 11.532 9.775 11.532z" fill="#000" fill-opacity=".2"/><path d="M212.461 119.926c5.476 0 9.915-5.163 9.915-11.532 0-6.37-4.439-11.533-9.915-11.533-5.476 0-9.915 5.163-9.915 11.533 0 6.369 4.439 11.532 9.915 11.532z" fill="#D8DEE8"/><path d="M270.938 119.926c5.399 0 9.776-5.163 9.776-11.532 0-6.37-4.377-11.533-9.776-11.533s-9.776 5.163-9.776 11.533c0 6.369 4.377 11.532 9.776 11.532z" fill="#DD51D4"/><path d="M270.938 119.926c5.399 0 9.776-5.163 9.776-11.532 0-6.37-4.377-11.533-9.776-11.533s-9.776 5.163-9.776 11.533c0 6.369 4.377 11.532 9.776 11.532z" fill="#000" fill-opacity=".2"/><path d="M251.375 119.926c5.476 0 9.915-5.163 9.915-11.532 0-6.37-4.439-11.533-9.915-11.533-5.476 0-9.915 5.163-9.915 11.533 0 6.369 4.439 11.532 9.915 11.532zm38.912 0c5.476 0 9.916-5.163 9.916-11.532 0-6.37-4.44-11.533-9.916-11.533s-9.915 5.163-9.915 11.533c0 6.369 4.439 11.532 9.915 11.532zm-116.738 0c5.476 0 9.915-5.163 9.915-11.532 0-6.37-4.439-11.533-9.915-11.533-5.476 0-9.915 5.163-9.915 11.533 0 6.369 4.439 11.532 9.915 11.532z" fill="#D8DEE8"/><path d="M103.185 40.36l60.661 69.595h156.567l-75.867-60.78-141.361-8.815z" fill="url(#paint13_linear_1458_23844)"/><path d="M103.185 40.36l60.661 69.595h156.567l-75.867-60.78-141.361-8.815z" fill="#DD51D4"/><path d="M103.185 40.36l60.661 69.595h19.618l-63.962-68.578-16.317-1.017zm33.837 2.11l65.774 67.485h19.378l-67.501-66.384-17.651-1.101zm35.433 2.209l69.144 65.276h19.472L190.37 45.797l-17.915-1.118zm54.159 3.377l-18.191-1.134 72.167 63.033h19.567l-73.543-61.899z" fill="#F4F7FA"/><path d="M300.176 109.955c.647 5.63 4.727 9.972 9.675 9.972s9.029-4.342 9.676-9.972h-19.351z" fill="#DD51D4"/><path d="M300.176 109.955c.647 5.63 4.727 9.972 9.675 9.972s9.029-4.342 9.676-9.972h-19.351z" fill="#000" fill-opacity=".2"/><path opacity=".63" d="M225.762 153.431c-8.472-19.514-29.949-28.992-47.98-21.168-18.031 7.824-25.784 29.986-17.317 49.501 8.468 19.516 29.95 28.991 47.981 21.167 18.031-7.823 25.783-29.991 17.316-49.5zm-26.588 27.81l.722 5.496-5.282.694-.668-5.12c-3.631.313-7.262-.196-9.466-1.113l.788-6.518c2.427.941 5.755 1.657 9.259 1.195 3.071-.403 5.017-1.865 4.733-4.021-.268-2.048-2.164-3.114-6.323-3.938-6.021-1.182-10.309-3.359-11.001-8.587-.622-4.742 2.23-8.9 7.848-10.789l-.673-5.12 5.282-.693.622 4.742c3.633-.314 6.157.126 8.049.751l-.759 6.295c-1.48-.409-4.121-1.323-8.002-.812-3.503.459-4.436 2.118-4.237 3.627.233 1.778 2.268 2.655 7.081 3.785 6.711 1.421 9.686 4.046 10.324 8.893.615 4.798-2.241 9.339-8.297 11.233zm45.935 78.152l-82.533 2.5a5.864 5.864 0 01-5.98-4.985l-3.346-22.003a5.883 5.883 0 01.152-2.469 5.882 5.882 0 013.11-3.704 5.868 5.868 0 012.406-.577l82.621-1.913a5.87 5.87 0 015.943 4.986l3.256 21.416a5.873 5.873 0 01-3.236 6.161 5.88 5.88 0 01-2.393.588zm2.772 18.088l-82.484 2.819a5.868 5.868 0 01-6.003-4.984l-.031-.207a5.874 5.874 0 011.291-4.637 5.874 5.874 0 014.326-2.112l82.514-2.614a5.866 5.866 0 015.989 4.984 5.877 5.877 0 01-1.285 4.633 5.888 5.888 0 01-4.317 2.118z" fill="#F4F7FA"/><defs><linearGradient id="paint0_linear_1458_23844" x1="350.652" y1="33.422" x2="-76.964" y2="76.808" gradientUnits="userSpaceOnUse"><stop stop-color="#7C4EAB"/><stop offset="1" stop-color="#DD51D4"/></linearGradient><linearGradient id="paint1_linear_1458_23844" x1="79487.4" y1="104503" x2="81384.5" y2="133266" gradientUnits="userSpaceOnUse"><stop stop-color="#E38DDD"/><stop offset="1" stop-color="#9571F6"/></linearGradient><linearGradient id="paint2_linear_1458_23844" x1="-10.488" y1="197.999" x2="31.754" y2="268.837" gradientUnits="userSpaceOnUse"><stop stop-color="#FF9085"/><stop offset="1" stop-color="#FB6FBB"/></linearGradient><linearGradient id="paint3_linear_1458_23844" x1="18650.4" y1="293419" x2="61830.7" y2="314220" gradientUnits="userSpaceOnUse"><stop stop-color="#FF9085"/><stop offset="1" stop-color="#FB6FBB"/></linearGradient><linearGradient id="paint4_linear_1458_23844" x1="92834.4" y1="273362" x2="233109" y2="396607" gradientUnits="userSpaceOnUse"><stop stop-color="#FF9085"/><stop offset="1" stop-color="#FB6FBB"/></linearGradient><linearGradient id="paint5_linear_1458_23844" x1="80078.2" y1="93590.9" x2="86051.3" y2="133708" gradientUnits="userSpaceOnUse"><stop stop-color="#E38DDD"/><stop offset="1" stop-color="#9571F6"/></linearGradient><linearGradient id="paint6_linear_1458_23844" x1="143556" y1="327062" x2="279865" y2="432393" gradientUnits="userSpaceOnUse"><stop stop-color="#FF9085"/><stop offset="1" stop-color="#FB6FBB"/></linearGradient><linearGradient id="paint7_linear_1458_23844" x1="9251.53" y1="19308.5" x2="9401.08" y2="19364.1" gradientUnits="userSpaceOnUse"><stop stop-color="#E38DDD"/><stop offset="1" stop-color="#9571F6"/></linearGradient><linearGradient id="paint8_linear_1458_23844" x1="14207" y1="19317.7" x2="14357" y2="19373.4" gradientUnits="userSpaceOnUse"><stop stop-color="#E38DDD"/><stop offset="1" stop-color="#9571F6"/></linearGradient><linearGradient id="paint9_linear_1458_23844" x1="120.688" y1="178.367" x2="390.354" y2="135.697" gradientUnits="userSpaceOnUse"><stop stop-color="#444B8C"/><stop offset="1" stop-color="#26264F"/></linearGradient><linearGradient id="paint10_linear_1458_23844" x1="241.919" y1="73.682" x2="-23.65" y2="624.521" gradientUnits="userSpaceOnUse"><stop stop-color="#FFC444"/><stop offset="1" stop-color="#F36F56"/></linearGradient><linearGradient id="paint11_linear_1458_23844" x1="277.361" y1="68.753" x2="65.887" y2="81.475" gradientUnits="userSpaceOnUse"><stop stop-color="#7C4EAB"/><stop offset="1" stop-color="#DD51D4"/></linearGradient><linearGradient id="paint12_linear_1458_23844" x1="276.907" y1="66.801" x2="75.545" y2="79.275" gradientUnits="userSpaceOnUse"><stop stop-color="#7C4EAB"/><stop offset="1" stop-color="#DD51D4"/></linearGradient><linearGradient id="paint13_linear_1458_23844" x1="190619" y1="47458.2" x2="563784" y2="47458.2" gradientUnits="userSpaceOnUse"><stop stop-color="#FF9085"/><stop offset="1" stop-color="#FB6FBB"/></linearGradient></defs></svg>