<svg width="270" height="270" viewBox="0 0 270 270" fill="none" xmlns="http://www.w3.org/2000/svg"><g clip-path="url(#clip0_1525_19570)"><path opacity=".5" d="M205.5 16.228c9.013 13.036-1.555 34.17 11.816 43.974 13.017 9.543 29.007-6.101 41.274 2.115 18.196 12.186 14.874 67.949-11.732 102.595-8.001 10.417-14.686 14.473-17.648 26.257-6.357 25.302 15.988 40.354 11.736 52.868-9.571 28.178-156.824 51.822-215.907-32.861-27.596-39.55-31.724-96.662-7.07-140.037 44.552-78.38 167.31-84.16 187.531-54.91z" fill="url(#paint0_linear_1525_19570)" fill-opacity=".5"/><path d="M0 236.97l263.588-1.961v5.802a3.19 3.19 0 01-2.705 3.153l-74.535 11.426c-.886.136-1.784.172-2.679.108L2.862 242.471a3.086 3.086 0 01-2.865-3.077L0 236.97z" fill="url(#paint1_linear_1525_19570)"/><path d="M95.654 227.564L260.86 238.18c2.957.185 5.361-1.829 5.361-4.51V126.296c0-2.68-2.404-4.853-5.361-4.853H95.654a4.398 4.398 0 00-4.405 4.387v97.062c0 2.425 1.97 4.516 4.406 4.672z" fill="url(#paint2_linear_1525_19570)"/><path d="M93.02 227.564l165.206 10.616c2.956.185 5.36-1.829 5.36-4.51V126.296c0-2.68-2.404-4.853-5.36-4.853H93.02a4.398 4.398 0 00-4.405 4.387v97.062c0 2.425 1.97 4.516 4.405 4.672z" fill="url(#paint3_linear_1525_19570)"/><path d="M98.166 220.722l153.87 9.22c2.406.144 4.36-1.513 4.36-3.7v-94.011c0-2.187-1.951-3.968-4.36-3.978l-153.87-.578a3.599 3.599 0 00-2.565 1.041 3.606 3.606 0 00-1.069 2.553v85.624c0 1.995 1.625 3.708 3.634 3.829z" fill="url(#paint4_linear_1525_19570)"/><path d="M169.789 124.38c0 .997.85 1.809 1.9 1.812 1.05.003 1.905-.805 1.905-1.806 0-1-.853-1.81-1.905-1.811-1.052-.001-1.9.807-1.9 1.805z" fill="#fff"/><path d="M132.824 198.116c12.737-6.231 22.751 1.663 32.415-6.125 5.86-4.722 2.983-8.244 10.192-15.3 7.986-7.816 13.184-5.189 21.21-12.223 10.147-8.895 5.072-15.815 13.812-22.202 10.604-7.747 22.038-.576 32.133-8.006 4.353-3.205 6.742-7.863 7.991-12.819h9.874c1.731 0 3.137 1.275 3.137 2.848v111.306c0 1.573-1.406 2.757-3.137 2.646L92.079 227.372a2.752 2.752 0 01-2.03-1.128c12.326-.407 19.897-4.164 24.738-8.048 9.469-7.593 7.827-15.085 18.037-20.08z" fill="#fff" opacity=".48"/><path d="M86.436 227.083l177.152 11.173-77.242 11.841c-.885.135-1.783.17-2.677.106L-.003 236.969l83.618-9.811c.936-.109 1.88-.134 2.82-.075z" fill="url(#paint5_linear_1525_19570)"/><path style="mix-blend-mode:multiply" opacity=".3" d="M237.738 238.537l-147.483-9.44-45.646 5.312L190.823 244.5l46.915-5.963z" fill="url(#paint6_linear_1525_19570)"/><path d="M17.675 81.122c-4.831.407-9.111-3.506-9.552-8.74-.44-5.233 3.12-9.806 7.955-10.213.25-.02.499-.024.743-.022a54.804 54.804 0 011.26-7.924 8.286 8.286 0 01-.685-.307c-4.407-2.265-6.33-7.94-4.295-12.675 2.035-4.736 7.259-6.74 11.666-4.476.23.118.45.251.666.388a50.414 50.414 0 014.767-6.12 9.252 9.252 0 01-.465-.65c-2.8-4.33-1.853-10.246 2.113-13.215 3.966-2.969 9.451-1.867 12.25 2.46.143.223.27.451.394.68a44.573 44.573 0 016.998-2.674 10.26 10.26 0 01-.105-.8C50.943 11.6 49.99 5.692 54.83 5.36c11.2-.763 13.62 4.77 14.066 10.003.022.271.028.54.03.806 2.485.283 4.942.774 7.345 1.468.084-.247.171-.493.28-.736 2.035-4.738 1.667-7.897 6.293-6.12 10.09 3.869 11.701 9.584 9.664 14.32a9.593 9.593 0 01-.35.715 50.399 50.399 0 015.724 5.236c.19-.17.385-.338.592-.493 3.965-2.973 9.45-1.867 12.25 2.462 2.799 4.329 1.853 10.245-2.114 13.214a8.187 8.187 0 01-.623.417 54.882 54.882 0 012.567 7.603c.243-.043.488-.082.743-.103 4.832-.407 9.106 3.505 9.552 8.74.446 5.233-3.121 9.805-7.955 10.212a8.02 8.02 0 01-.744.022 54.699 54.699 0 01-1.259 7.924c.23.093.458.192.684.308 4.408 2.265 6.33 7.939 4.295 12.676-2.036 4.736-7.258 6.739-11.665 4.474a8.432 8.432 0 01-.667-.387 50.175 50.175 0 01-4.767 6.12c.16.209.318.421.465.65 2.798 4.329 1.852 10.246-2.114 13.216-3.967 2.969-12.552 1.61-15.35-2.719-.145-.222 2.83-.194 2.706-.423a44.524 44.524 0 01-6.997 2.674c.043.264.082.53.105.801.44 5.233-3.121 9.806-7.955 10.213-4.835.407-9.112-3.506-9.552-8.739a10.265 10.265 0 01-.03-.806 44.707 44.707 0 01-7.347-1.468c-.084.247-.17.493-.279.737-2.035 4.738-7.257 6.739-11.664 4.475-4.407-2.265-6.33-7.939-4.295-12.675.106-.247.226-.483.35-.715a50.368 50.368 0 01-5.724-5.237c-.186.17-.385.338-.592.493-3.967 2.973-9.452 1.868-12.25-2.461-2.799-4.33-1.853-10.246 2.113-13.215a8.78 8.78 0 01.623-.417 54.784 54.784 0 01-2.566-7.602c-.247.039-.493.078-.743.099zm49.71 20.921c17.554-1.478 30.486-18.08 28.885-37.082-1.601-19.002-17.134-33.208-34.685-31.73C44.034 34.709 31.098 51.314 32.7 70.314c1.603 19 17.128 33.207 34.681 31.729h.004z" fill="#BFC6D1"/><path d="M17.401 53.915c-4.407-2.265-6.33-7.94-4.294-12.676 2.035-4.737 7.258-6.74 11.665-4.475.23.118.45.251.667.388a50.334 50.334 0 014.766-6.12 9.22 9.22 0 01-.464-.65c-2.8-4.33-4.95-12.913-.7-15.463 8.066-4.83 12.265.38 15.063 4.709.143.222.27.45.395.68a44.523 44.523 0 016.996-2.674 11.02 11.02 0 01-.105-.801c-.24-2.848.712-5.495 2.403-7.386A1476.224 1476.224 0 0156.82 34.02c-15.064 3.792-25.57 19.052-24.117 36.29 1.23 14.605 10.692 26.367 22.973 30.362-.027 1.597-.07 3.197-.054 4.796.04 4.338.321 8.685.607 13.029a44.785 44.785 0 01-3.53-.864 8.3 8.3 0 01-.28.736c-2.034 4.738-6.582 7.618-14.691 3.809-4.485-2.105-3.303-7.274-1.268-12.01a9.6 9.6 0 01.35-.716 50.268 50.268 0 01-5.724-5.236c-.186.17-.385.338-.592.493-3.966 2.973-12.864 1.301-15.664-3.026-2.8-4.327 1.561-9.681 5.528-12.65.203-.152.412-.287.622-.418a54.78 54.78 0 01-2.566-7.602 8.43 8.43 0 01-.739.103c-4.831.407-9.111-3.505-9.551-8.74-.44-5.233 3.12-9.805 7.955-10.212a7.97 7.97 0 01.744-.022 54.79 54.79 0 011.258-7.924 7.016 7.016 0 01-.68-.302z" fill="#BFC6D1"/><path d="M13.167 79.861c-4.831.407-9.11-3.505-9.551-8.738-.442-5.234 3.12-9.807 7.955-10.219.25-.021.498-.023.744-.021a54.791 54.791 0 011.258-7.925 8.286 8.286 0 01-.684-.308c-4.407-2.263-6.33-7.938-4.294-12.674 2.036-4.736 7.258-6.74 11.665-4.476.23.119.45.252.666.387a50.384 50.384 0 014.768-6.12 8.519 8.519 0 01-.465-.65c-2.799-4.329-1.853-10.245 2.114-13.214 3.966-2.97 9.45-1.867 12.249 2.461.144.223.27.45.395.68a44.527 44.527 0 016.996-2.675 10.69 10.69 0 01-.104-.8c-.442-5.233 3.12-9.807 7.955-10.214 4.834-.406 9.11 3.506 9.552 8.74.022.271.029.539.03.806a44.62 44.62 0 017.346 1.467c.084-.247.17-.493.278-.735 2.036-4.738 7.259-6.74 11.666-4.476 4.407 2.264 6.33 7.939 4.295 12.674a9.235 9.235 0 01-.35.716 50.326 50.326 0 015.724 5.237c.19-.17.385-.339.592-.494 3.966-2.973 9.45-1.867 12.25 2.462 2.8 4.329 1.853 10.245-2.114 13.214a8.268 8.268 0 01-.623.418 54.859 54.859 0 012.567 7.602c.243-.043.488-.082.743-.102 4.832-.408 9.112 3.505 9.552 8.738.441 5.234-3.121 9.806-7.955 10.219-.25.02-.498.023-.744.021a54.71 54.71 0 01-1.259 7.925c.23.093.459.191.685.307 4.407 2.264 6.329 7.94 4.295 12.675-2.035 4.736-7.259 6.74-11.666 4.476a8.895 8.895 0 01-.666-.388 50.326 50.326 0 01-4.768 6.12c.16.209.319.42.465.65 2.798 4.329 1.853 10.244-2.114 13.214-3.967 2.97-9.45 1.867-12.25-2.461-.143-.222-.27-.451-.394-.68a44.639 44.639 0 01-6.997 2.675c.043.264.082.528.105.8.442 5.233-3.12 9.806-7.955 10.213-4.835.407-9.106-3.505-9.552-8.739a9.815 9.815 0 01-.03-.806 44.704 44.704 0 01-7.346-1.467 8.624 8.624 0 01-.279.736c-2.035 4.737-7.258 6.739-11.665 4.475-4.407-2.264-6.33-7.939-4.295-12.675a9.6 9.6 0 01.35-.716 50.225 50.225 0 01-5.724-5.236 7.596 7.596 0 01-.592.493c-3.967 2.973-9.45 1.868-12.25-2.461-2.8-4.329-1.853-10.245 2.114-13.215.203-.151.412-.286.623-.417a54.664 54.664 0 01-2.567-7.603 8.362 8.362 0 01-.744.104zm49.71 20.921c17.554-1.478 30.486-18.08 28.885-37.082-1.602-19-17.128-33.208-34.682-31.73-17.553 1.48-30.489 18.08-28.888 37.087 1.6 19.006 17.124 33.203 34.685 31.725z" fill="#D8DEE8"/><path d="M99.219 60.184v44.776c0 1.486-1.017 2.667-2.267 2.636l-73.992-1.811c-1.138-.028-2.06-1.198-2.06-2.612V60.546l78.319-.362z" fill="#fff"/><path d="M22.96 55.117l73.992-.598c1.25-.01 2.267 1.186 2.267 2.673v4.588l-78.319.285v-4.367c0-1.417.922-2.576 2.06-2.581z" fill="url(#paint7_linear_1525_19570)"/><path d="M80.738 83.827l-4.135-17.335c-6.235 2.415-10.724 9.407-10.757 17.675l14.892-.34z" fill="url(#paint8_linear_1525_19570)"/><path d="M69.678 85.293c.23 3.942 1.804 7.46 4.176 9.89l6.484-10.142-10.66.252zm11.984-2.052c2.509-2.858 5.548-6.317 7.967-9.092-2.145-2.445-5.04-3.946-8.215-3.95a9.965 9.965 0 00-2.787.392l3.035 12.65zm.525 1.091l9.136 8.134c1.283-2.256 2.033-4.987 2.033-7.937 0-3.636-1.14-6.967-3.014-9.495l-2.23 2.55c-2.47 2.819-4.947 5.635-5.925 6.748zm-.261 1.277l.176 12.995c3.47-.17 6.555-2.137 8.615-5.16l-8.791-7.835zm-1.011.541l-6.262 9.786c1.826 1.57 4.036 2.543 6.431 2.668l-.17-12.455z" fill="#F4F7FA"/><path d="M26.252 74.41l37.496.162v-4.37l-37.496-.06v4.268zm0 7.724l37.496.347v-4.37l-37.496-.245v4.268zm0 7.723l37.496.532v-4.37l-37.496-.43v4.268zm0 7.723l37.496.718v-4.37l-37.496-.616v4.268z" fill="#D8DEE8"/><path d="M23.923 58.69c0 .66.45 1.19 1.003 1.188.554-.003 1.006-.54 1.006-1.2 0-.659-.451-1.19-1.006-1.188-.554.003-1.003.542-1.003 1.2zm153.104 98.603v54.275c0 1.802-1.258 3.187-2.807 3.094l-91.045-5.461c-1.394-.084-2.519-1.532-2.519-3.237v-51.333l96.371 2.662z" fill="#fff"/><path d="M83.175 148.174l91.045 2.166c1.549.038 2.807 1.528 2.807 3.33v5.561l-96.371-2.767v-5.26c0-1.708 1.127-3.062 2.519-3.03z" fill="url(#paint9_linear_1525_19570)"/><path d="M90.451 200.323l75.754 4.127v-37.004l-75.754-2.541v35.418z" fill="#F4F7FA"/><path d="M90.452 200.324l75.749 4.126v-23.788c-2.479 16.053-5.119 19.502-7.108 19.572-2.799.098-4.305-6.497-8.534-6.875-4.196-.376-5.612 5.876-8.753 5.499-5.967-.717-7.589-24.176-12.423-24.525-3.838-.278-6.433 14.28-9.812 13.545-2.469-.537-3.066-8.747-4.935-8.742-1.694.006-1.765 6.756-3.995 7.281-3.265.77-6.439-12.95-10.937-13.218-2.489-.148-5.588 3.814-9.258 17.584l.006 9.541z" fill="url(#paint10_linear_1525_19570)"/><path d="M83.733 152.364c0 .798.558 1.46 1.242 1.478.684.017 1.244-.614 1.244-1.413s-.558-1.462-1.244-1.479c-.687-.018-1.242.615-1.242 1.414zm169.312-95.027v77.814c0 2.583-1.88 4.645-4.194 4.606l-132.976-2.271c-1.989-.034-3.597-1.997-3.597-4.383V61.195l140.767-3.858z" fill="#fff"/><path d="M115.875 51.95l132.976-4.352c2.314-.076 4.194 1.956 4.194 4.54v7.974l-140.769 3.647v-7.37c.002-2.387 1.613-4.375 3.599-4.44z" fill="url(#paint11_linear_1525_19570)"/><path d="M116.204 57.949c0 1.143.829 2.044 1.852 2.017 1.023-.027 1.858-.981 1.858-2.126 0-1.144-.831-2.044-1.858-2.017-1.028.027-1.852.983-1.852 2.126z" fill="#fff"/><path d="M224.293 129.271l10.477.121V71.565l-10.477.209v57.497z" fill="#F4F7FA"/><path d="M224.293 129.271l10.477.122v-27.456l-10.477.036v27.298z" fill="url(#paint12_linear_1525_19570)"/><path d="M209.914 129.104l10.311.12v-57.37l-10.311.206v57.044z" fill="#F4F7FA"/><path d="M209.914 129.104l10.311.12v-13.619l-10.311-.042v13.541z" fill="url(#paint13_linear_1525_19570)"/><path d="M195.76 128.941l10.15.118v-56.92l-10.15.203v56.599z" fill="#F4F7FA"/><path d="M195.76 128.941l10.15.118v-7.094l-10.15-.078v7.054z" fill="url(#paint14_linear_1525_19570)"/><path d="M181.826 128.78l9.994.115V72.421l-9.994.2v56.159z" fill="#F4F7FA"/><path d="M181.826 128.78l9.994.115v-44.24l-9.994.13v43.995z" fill="url(#paint15_linear_1525_19570)"/><path d="M168.106 128.621l9.839.115V72.697l-9.839.196v55.728z" fill="#F4F7FA"/><path d="M168.106 128.621l9.839.115V89.825l-9.839.102v38.694z" fill="url(#paint16_linear_1525_19570)"/><path d="M154.595 128.465l9.69.113V72.969l-9.69.194v55.302z" fill="#F4F7FA"/><path d="M154.595 128.465l9.69.113V81.055l-9.69.149v47.261z" fill="url(#paint17_linear_1525_19570)"/><path d="M141.289 128.311l9.543.111V73.238l-9.543.19v54.883z" fill="#F4F7FA"/><path d="M141.289 128.311l9.543.111V94.526l-9.543.074v33.711z" fill="url(#paint18_linear_1525_19570)"/><path d="M128.184 128.16l9.4.108V73.502l-9.4.187v54.471z" fill="#F4F7FA"/><path d="M128.184 128.16l9.4.108v-19.013l-9.4-.006v18.911z" fill="url(#paint19_linear_1525_19570)"/><path d="M258.207 163.558v45.173c0 1.499-.982 2.66-2.194 2.592l-71.767-4.01c-1.106-.062-2.003-1.272-2.003-2.704v-43.116l75.964 2.065z" fill="#fff"/><path d="M184.246 156.067l71.767 1.705c1.208.029 2.194 1.267 2.194 2.767v4.629l-75.964-2.136v-4.424c0-1.428.897-2.568 2.003-2.541z" fill="url(#paint20_linear_1525_19570)"/><path d="M185.697 159.534c0 .665.435 1.215.971 1.23.536.014.973-.514.973-1.18 0-.666-.436-1.216-.973-1.229-.537-.013-.971.518-.971 1.179z" fill="#fff"/><path d="M246.657 185.198c-.666-1.586-1.915-2.746-3.382-3.017l-.103-7.723c4.172.342 7.743 3.68 9.336 8.28l-5.851 2.46z" fill="url(#paint21_linear_1525_19570)"/><path d="M242.102 182.16c-1.983.294-3.531 2.257-3.717 4.765l-6.124.059c.078-6.827 4.329-12.245 9.735-12.541l.106 7.717zm-3.666 6.227c.36 2.588 2.156 4.624 4.324 4.723a3.577 3.577 0 001.796-.395l3.264 6.735a8.62 8.62 0 01-5.056 1.349c-5.473-.274-9.942-5.693-10.45-12.355l6.122-.057zm10.39 10.337l-3.269-6.737c.987-.965 1.617-2.47 1.617-4.186 0-.404-.036-.809-.107-1.207l5.854-2.455c.314 1.285.473 2.604.472 3.927 0 4.502-1.81 8.397-4.567 10.658zm-24.965-14.449c-.651-1.562-1.863-2.707-3.291-2.973l-.099-7.617c4.059.334 7.526 3.623 9.08 8.161l-5.69 2.429z" fill="#D8DEE8"/><path d="M219.43 181.282c-1.928.291-3.432 2.229-3.611 4.702l-5.959.061c.076-6.733 4.212-12.076 9.47-12.375l.1 7.612z" fill="url(#paint22_linear_1525_19570)"/><path d="M215.865 187.426c.35 2.552 2.098 4.559 4.206 4.655a3.43 3.43 0 001.747-.39l3.176 6.64a8.308 8.308 0 01-4.924 1.334c-5.325-.266-9.673-5.608-10.166-12.183l5.961-.056zm10.108 10.19l-3.185-6.643c.965-.953 1.58-2.437 1.58-4.125 0-.4-.035-.799-.104-1.193l5.691-2.43c.306 1.269.46 2.569.459 3.873 0 4.442-1.759 8.285-4.441 10.518zm-24.289-14.237c-.63-1.542-1.813-2.67-3.201-2.931l-.093-7.514c3.95.328 7.329 3.573 8.837 8.046l-5.543 2.399zm-4.311-2.951c-1.876.289-3.339 2.201-3.514 4.645l-5.799.063c.073-6.642 4.099-11.919 9.216-12.213l.097 7.505zm-3.471 6.063c.341 2.518 2.044 4.497 4.088 4.59a3.29 3.29 0 001.701-.387l3.09 6.548a7.993 7.993 0 01-4.791 1.32c-5.181-.259-9.413-5.526-9.892-12.012l5.804-.059z" fill="#D8DEE8"/><path d="M203.739 196.536l-3.093-6.55c.929-.941 1.53-2.405 1.53-4.074a6.94 6.94 0 00-.101-1.178l5.54-2.395c.297 1.252.447 2.534.446 3.82-.002 4.383-1.714 8.174-4.322 10.377z" fill="url(#paint23_linear_1525_19570)"/></g><defs><linearGradient id="paint0_linear_1525_19570" x1="1.687" y1="25.763" x2="329.033" y2="58.217" gradientUnits="userSpaceOnUse"><stop stop-color="#7C4EAB"/><stop offset="1" stop-color="#DD51D4"/></linearGradient><linearGradient id="paint1_linear_1525_19570" x1="152.166" y1="246.781" x2="170.655" y2="254.548" gradientUnits="userSpaceOnUse"><stop stop-color="#40447E"/><stop offset="1" stop-color="#3C3B6B"/></linearGradient><linearGradient id="paint2_linear_1525_19570" x1="-230699" y1="261614" x2="-201362" y2="280081" gradientUnits="userSpaceOnUse"><stop stop-color="#40447E"/><stop offset="1" stop-color="#3C3B6B"/></linearGradient><linearGradient id="paint3_linear_1525_19570" x1="-77054.5" y1="266460" x2="-406545" y2="266460" gradientUnits="userSpaceOnUse"><stop stop-color="#40447E"/><stop offset="1" stop-color="#3C3B6B"/></linearGradient><linearGradient id="paint4_linear_1525_19570" x1="94.532" y1="137.433" x2="289.1" y2="168.154" gradientUnits="userSpaceOnUse"><stop stop-color="#7C4EAB"/><stop offset="1" stop-color="#DD51D4"/></linearGradient><linearGradient id="paint5_linear_1525_19570" x1="-116214" y1="67793.7" x2="-863973" y2="67793.7" gradientUnits="userSpaceOnUse"><stop stop-color="#40447E"/><stop offset="1" stop-color="#3C3B6B"/></linearGradient><linearGradient id="paint6_linear_1525_19570" x1="-66818.6" y1="39492.8" x2="-468241" y2="39492.8" gradientUnits="userSpaceOnUse"><stop stop-color="#40447E"/><stop offset="1" stop-color="#3C3B6B"/></linearGradient><linearGradient id="paint7_linear_1525_19570" x1="-211467" y1="6619.22" x2="-211097" y2="12898.6" gradientUnits="userSpaceOnUse"><stop stop-color="#FFC444"/><stop offset="1" stop-color="#F36F56"/></linearGradient><linearGradient id="paint8_linear_1525_19570" x1="-116045" y1="19049.9" x2="-112461" y2="29729.3" gradientUnits="userSpaceOnUse"><stop stop-color="#FFC444"/><stop offset="1" stop-color="#F36F56"/></linearGradient><linearGradient id="paint9_linear_1525_19570" x1="120.632" y1="141.119" x2="164.988" y2="213.648" gradientUnits="userSpaceOnUse"><stop stop-color="#AA80F9"/><stop offset="1" stop-color="#6165D7"/></linearGradient><linearGradient id="paint10_linear_1525_19570" x1="-140207" y1="69579.8" x2="-141433" y2="86384.6" gradientUnits="userSpaceOnUse"><stop stop-color="#AA80F9"/><stop offset="1" stop-color="#6165D7"/></linearGradient><linearGradient id="paint11_linear_1525_19570" x1="171.63" y1="39.207" x2="231.246" y2="136.688" gradientUnits="userSpaceOnUse"><stop stop-color="#FF9085"/><stop offset="1" stop-color="#FB6FBB"/></linearGradient><linearGradient id="paint12_linear_1525_19570" x1="-5025.41" y1="28566.2" x2="2338.02" y2="37334.5" gradientUnits="userSpaceOnUse"><stop stop-color="#FF9085"/><stop offset="1" stop-color="#FB6FBB"/></linearGradient><linearGradient id="paint13_linear_1525_19570" x1="-6253.82" y1="16544.4" x2="-4778.55" y2="20019.1" gradientUnits="userSpaceOnUse"><stop stop-color="#FF9085"/><stop offset="1" stop-color="#FB6FBB"/></linearGradient><linearGradient id="paint14_linear_1525_19570" x1="-7578.59" y1="9301.93" x2="-7293.72" y2="10560.2" gradientUnits="userSpaceOnUse"><stop stop-color="#FF9085"/><stop offset="1" stop-color="#FB6FBB"/></linearGradient><linearGradient id="paint15_linear_1525_19570" x1="-9777.2" y1="36782.6" x2="7665.61" y2="49079.3" gradientUnits="userSpaceOnUse"><stop stop-color="#FF9085"/><stop offset="1" stop-color="#FB6FBB"/></linearGradient><linearGradient id="paint16_linear_1525_19570" x1="-10983.4" y1="34821.2" x2="3067" y2="45908.3" gradientUnits="userSpaceOnUse"><stop stop-color="#FF9085"/><stop offset="1" stop-color="#FB6FBB"/></linearGradient><linearGradient id="paint17_linear_1525_19570" x1="-12423.7" y1="37484.7" x2="6803.04" y2="49719.6" gradientUnits="userSpaceOnUse"><stop stop-color="#FF9085"/><stop offset="1" stop-color="#FB6FBB"/></linearGradient><linearGradient id="paint18_linear_1525_19570" x1="-13338.7" y1="32311.8" x2="-2370.42" y2="41948.6" gradientUnits="userSpaceOnUse"><stop stop-color="#FF9085"/><stop offset="1" stop-color="#FB6FBB"/></linearGradient><linearGradient id="paint19_linear_1525_19570" x1="-14181.1" y1="21584.5" x2="-10796.3" y2="26804.9" gradientUnits="userSpaceOnUse"><stop stop-color="#FF9085"/><stop offset="1" stop-color="#FB6FBB"/></linearGradient><linearGradient id="paint20_linear_1525_19570" x1="213.695" y1="150.651" x2="248.894" y2="208.206" gradientUnits="userSpaceOnUse"><stop stop-color="#E38DDD"/><stop offset="1" stop-color="#9571F6"/></linearGradient><linearGradient id="paint21_linear_1525_19570" x1="-6005.78" y1="23923.2" x2="-4235.14" y2="26366.4" gradientUnits="userSpaceOnUse"><stop stop-color="#FF9085"/><stop offset="1" stop-color="#FB6FBB"/></linearGradient><linearGradient id="paint22_linear_1525_19570" x1="-9000.58" y1="27682.8" x2="-9454.91" y2="34408.4" gradientUnits="userSpaceOnUse"><stop stop-color="#FFC444"/><stop offset="1" stop-color="#F36F56"/></linearGradient><linearGradient id="paint23_linear_1525_19570" x1="-7841.15" y1="32783.9" x2="-6729.6" y2="39372.2" gradientUnits="userSpaceOnUse"><stop stop-color="#AA80F9"/><stop offset="1" stop-color="#6165D7"/></linearGradient><clipPath id="clip0_1525_19570"><path fill="#fff" transform="matrix(-1 0 0 1 270 0)" d="M0 0h270v270H0z"/></clipPath></defs></svg>