<svg width="140" height="32" viewBox="0 0 140 32" fill="none" xmlns="http://www.w3.org/2000/svg"><path d="M49.49 20.952c-.444 0-.957-.068-1.537-.204l-1.832-.5.5-1.5c1.036.371 1.9.556 2.591.556.37 0 .679-.086.926-.259a.815.815 0 00.37-.704c0-.296-.08-.518-.24-.666-.161-.148-.457-.278-.89-.389l-.999-.259c-1.382-.358-2.073-1.172-2.073-2.444 0-.765.29-1.394.87-1.888.592-.493 1.364-.74 2.314-.74.383 0 .833.068 1.351.203l1.833.5-.5 1.5c-1-.37-1.758-.556-2.277-.556-.345 0-.635.093-.87.278a.81.81 0 00-.352.685c0 .296.08.518.241.666.16.149.457.278.889.39l.98.258c.741.198 1.272.5 1.593.908.32.394.481.907.481 1.536 0 .753-.284 1.382-.851 1.888-.568.494-1.407.74-2.518.74zm7.917 0c-.925 0-1.58-.229-1.962-.685-.37-.457-.555-1.154-.555-2.092V13.75h-1.37v-1.629h1.37V9.955l2.35-.462v2.628h2.037v1.63h-2.036v4.46c0 .73.296 1.093.888 1.093.358 0 .74-.11 1.148-.333l.37 1.388a4.374 4.374 0 01-2.24.593zm5.765 0c-.84 0-1.506-.26-2-.778a2.592 2.592 0 01-.74-1.851c0-.53.173-.957.518-1.277.358-.334.913-.593 1.666-.778l2.98-.74v-.76c0-.357-.11-.641-.332-.85-.21-.21-.506-.316-.889-.316-.432 0-1.407.327-2.925.982l-.648-1.5 2.11-.777c.642-.235 1.111-.352 1.408-.352 1.123 0 2.005.296 2.647.888.654.58.98 1.346.98 2.296v3.184c0 .235.038.586.112 1.055.086.457.198.846.333 1.166l-2.018.408c-.246-.272-.506-.648-.777-1.13-.827.753-1.635 1.13-2.425 1.13zm.833-1.648c.481 0 1.012-.277 1.592-.833v-1.87l-1.851.537c-.593.173-.889.5-.889.981 0 .37.105.66.315.87.21.21.487.315.833.315zm8.833 1.648c-.926 0-1.58-.229-1.962-.685-.37-.457-.556-1.154-.556-2.092V13.75h-1.37v-1.629h1.37V9.955l2.351-.462v2.628h2.037v1.63H72.67v4.46c0 .73.296 1.093.889 1.093.358 0 .74-.11 1.148-.333l.37 1.388a4.374 4.374 0 01-2.24.593zm26.146-.167h-2.351v-5.054c0-.74-.111-1.277-.333-1.61-.21-.346-.55-.519-1.018-.519-.47 0-.975.278-1.518.833v6.35h-2.352v-5.054c0-.74-.104-1.277-.314-1.61-.21-.346-.555-.519-1.037-.519-.457 0-.963.278-1.518.833v6.35h-2.351v-6.201c0-.235-.043-.58-.13-1.037a5.117 5.117 0 00-.314-1.185l2-.407c.258.259.524.635.795 1.129.778-.753 1.586-1.13 2.425-1.13 1.247 0 2.092.439 2.536 1.315.272-.358.66-.666 1.167-.925a3.304 3.304 0 011.518-.39c.938 0 1.635.272 2.092.815.469.543.703 1.389.703 2.537v5.48zm4.269.167c-.84 0-1.506-.26-2-.778a2.594 2.594 0 01-.74-1.851c0-.53.172-.957.518-1.277.358-.334.913-.593 1.666-.778l2.981-.74v-.76c0-.357-.111-.641-.334-.85-.209-.21-.506-.316-.888-.316-.432 0-1.407.327-2.925.982l-.648-1.5 2.11-.777c.642-.235 1.111-.352 1.407-.352 1.123 0 2.006.296 2.648.888.654.58.981 1.346.981 2.296v3.184c0 .235.037.586.111 1.055.086.457.197.846.333 1.166l-2.018.408c-.247-.272-.506-.648-.777-1.13-.827.753-1.636 1.13-2.425 1.13zm.833-1.648c.481 0 1.012-.277 1.592-.833v-1.87l-1.852.537c-.592.173-.888.5-.888.981 0 .37.105.66.315.87.209.21.487.315.833.315zm8.402 1.481h-2.351v-6.201c0-.235-.043-.58-.129-1.037a5.101 5.101 0 00-.315-1.185l1.999-.407c.383.382.648.9.796 1.555.247-.494.574-.877.982-1.148a2.44 2.44 0 011.351-.407c.272 0 .518.043.741.13l-.408 2.017h-.611c-.58 0-1.036.142-1.37.426-.32.271-.549.728-.685 1.37v4.887zm12.226 0h-2.888l-2.87-4.48v4.48h-2.351V8.42l2.351-.463v7.701l2.925-3.536h2.647l-3.48 3.87 3.666 4.794zm4.214.167c-1.395 0-2.45-.414-3.166-1.24-.703-.84-1.055-1.938-1.055-3.296 0-1.357.364-2.437 1.092-3.24.728-.814 1.74-1.221 3.036-1.221 2.505 0 3.758 1.302 3.758 3.906 0 .271-.031.5-.092.685h-5.369c0 .925.167 1.617.5 2.073.345.457.82.685 1.425.685.679 0 1.568-.247 2.666-.74l.648 1.5-1.962.721c-.334.111-.827.167-1.481.167zm-.223-7.35c-.493 0-.882.173-1.166.519-.271.345-.407.777-.407 1.296h3.017c0-1.21-.481-1.815-1.444-1.815zm8.498 7.35c-.926 0-1.58-.229-1.962-.685-.37-.457-.556-1.154-.556-2.092V13.75h-1.37v-1.629h1.37V9.955l2.351-.462v2.628h2.037v1.63h-2.037v4.46c0 .73.297 1.093.889 1.093.358 0 .741-.11 1.148-.333l.37 1.388a4.374 4.374 0 01-2.24.593z" fill="#54618E"/><path d="M83.508 20.785h-2.24v-2.85h-5.054l-.5-1.445 5.276-7.553h2.518v7.257h1.185v1.74h-1.185v2.851zm-2.24-4.59V11.38l-3.277 4.813h3.277z" fill="#D653D2"/><mask id="a" style="mask-type:alpha" maskUnits="userSpaceOnUse" x="0" y="0" width="35" height="33"><ellipse cx="17.5" cy="16" rx="17.5" ry="16" fill="url(#paint0_linear_1525_19227)"/></mask><g mask="url(#a)"><ellipse cx="17.5" cy="16" rx="17.5" ry="16" fill="url(#paint1_linear_1525_19227)"/><path d="M23.065 20.44V2.658c0-.272.009-.568.026-.888l.105-.984L7.131 20.44h15.934zm14.87 0v1.249c0 .176-.06.32-.183.432-.105.096-.28.144-.525.144H25.27v9.744h-2.205v-9.744H5.504c-.263 0-.464-.048-.604-.144a.851.851 0 01-.289-.432l-.236-1.128L23.039-2h2.231v22.44h12.666z" fill="#fff"/></g><defs><linearGradient id="paint0_linear_1525_19227" x1="40.25" y1="-9.6" x2="13.683" y2="34.197" gradientUnits="userSpaceOnUse"><stop stop-color="#F0A"/><stop offset="1" stop-color="#8912DE"/></linearGradient><linearGradient id="paint1_linear_1525_19227" x1="40.25" y1="-9.6" x2="13.683" y2="34.197" gradientUnits="userSpaceOnUse"><stop stop-color="#F0A"/><stop offset="1" stop-color="#8912DE"/></linearGradient></defs></svg>