<svg width="75" height="75" viewBox="0 0 75 75" fill="none" xmlns="http://www.w3.org/2000/svg"><path fill-rule="evenodd" clip-rule="evenodd" d="M37.023.106c-.46.19-4.238 3.69-5.338 4.945a24.89 24.89 0 00-3.199 4.609l-.61 1.134-12.422.076-12.424.075-.808.447c-.882.488-1.376.999-1.888 1.955L0 13.97V61l.334.622c.512.957 1.006 1.468 1.888 1.956l.808.446 12.285.042 12.284.04-.395 2.38-.395 2.377-2.831.076c-3.501.094-3.35 0-3.424 2.122l-.052 1.507-2.524.003c-1.7.001-2.643.063-2.89.189-.78.396-.728 1.69.08 2.057.537.244 44.127.244 44.663 0 .842-.382.842-1.695 0-2.078-.23-.105-1.338-.17-2.868-.17H54.47V71.29c0-1.326-.17-1.946-.589-2.152-.135-.066-1.47-.155-2.967-.197l-2.723-.078-.395-2.378-.395-2.378 12.284-.041 12.285-.042.776-.408c.842-.444 1.4-1.023 1.92-1.994L75 61V13.97l-.334-.623c-.52-.97-1.078-1.55-1.92-1.993l-.776-.409-12.431-.04-12.432-.042-.501-1.015c-1.394-2.821-3.5-5.336-7.136-8.525C37.959-.002 37.653-.154 37.023.106zm2.05 4.093c4.108 3.689 6.499 7.727 7.7 13.004.322 1.42.331 1.755.384 13.893l.055 12.438h-6.076V40.44c0-1.977-.062-3.229-.17-3.468-.29-.634-.777-.721-3.743-.67-2.39.042-2.778.082-3.014.317-.24.24-.275.644-.316 3.592l-.046 3.322h-6.059l.055-12.438c.053-12.138.062-12.474.385-13.893.932-4.1 2.668-7.596 5.24-10.554.859-.987 3.83-3.781 4.032-3.79.042-.002.75.6 1.572 1.34zm-3.64 8.17c-2.154.583-3.723 1.685-4.9 3.442-1.057 1.575-1.433 2.796-1.438 4.661-.008 3.066 1.325 5.512 3.929 7.21 2.606 1.699 6.33 1.698 8.966-.003 2.553-1.646 3.906-4.112 3.915-7.131.008-2.991-1.358-5.482-3.91-7.128-1.859-1.2-4.468-1.617-6.561-1.05zm-8.69 1.07c0 .081-.169.727-.374 1.434-.82 2.826-.882 3.491-.951 10.306l-.064 6.37-.663.091c-2.623.359-5.53 2.255-7.122 4.645-.851 1.278-1.33 2.43-1.646 3.954-.402 1.94-.275 2.79.464 3.127.244.11 1.844.168 4.68.168h4.312v.673c0 1.276.471 1.746 1.75 1.746h.674v8.469H2.348v-19.9c0-18.087.023-19.939.246-20.316.567-.957-.102-.908 12.595-.913 7.486-.002 11.553.049 11.553.145zm44.993.098c.982.578.915-.948.915 20.984v19.9H47.197v-8.468h.675c1.278 0 1.75-.47 1.75-1.746v-.673h4.31c2.882 0 4.436-.057 4.687-.171.764-.347.868-1.607.314-3.775-1.024-4.001-4.728-7.415-8.623-7.948l-.661-.09-.067-6.37c-.072-6.812-.135-7.498-.951-10.307-.205-.707-.373-1.353-.373-1.435 0-.096 4.062-.149 11.53-.149 10.4 0 11.57.024 11.948.248zM39.34 14.799c1.783.555 3.308 2.073 3.903 3.883 1.034 3.143-.71 6.561-3.874 7.598-4.665 1.529-9.144-2.942-7.612-7.598 1.034-3.145 4.407-4.872 7.583-3.883zm-3.31 1.182c-1.646.587-2.694 1.69-3.176 3.343-.45 1.543.06 3.443 1.242 4.621 1.842 1.839 4.966 1.839 6.808 0 .316-.315.753-.954.97-1.418.818-1.745.412-3.998-.97-5.377-1.232-1.23-3.308-1.727-4.874-1.169zm2.536 2.487c.728.367 1.358 1.332 1.358 2.08 0 .214-.153.693-.34 1.064-.368.727-1.335 1.355-2.084 1.355-.215 0-.694-.153-1.066-.34-.728-.366-1.358-1.331-1.358-2.08 0-.747.63-1.712 1.358-2.079.372-.187.851-.34 1.066-.34.215 0 .694.153 1.066.34zM25.38 37.56v3.554h-3.56c-4.049 0-3.76.125-3.245-1.403a8.588 8.588 0 015.29-5.35c1.652-.584 1.515-.873 1.515 3.2zm25.649-3.24a8.58 8.58 0 015.398 5.39c.514 1.53.804 1.404-3.244 1.404h-3.56V37.56c0-4.04-.127-3.75 1.406-3.24zm-12.316 9.214v4.839h-2.424v-9.679h2.424v4.84zm-4.848 4.302c0 2.03.125 2.525.705 2.788.224.102 1.377.168 2.931.168s2.707-.066 2.93-.168c.581-.263.706-.759.706-2.788v-1.883h3.637v8.469H30.227v-8.469h3.637v1.883zm38.787 10.63c0 1.907-.225 2.533-1.06 2.95-.5.249-2.443.264-34.091.264s-33.59-.015-34.09-.265c-.836-.416-1.061-1.042-1.061-2.948V56.84h70.3v1.626zm-67.506-.044a1.217 1.217 0 00-.372.839c0 .294.137.604.372.838l.372.372h8.209l.372-.372c.492-.49.492-1.186 0-1.677l-.372-.371h-8.21l-.372.371zm10.909 0a1.217 1.217 0 00-.372.839c0 .294.137.604.372.838.325.325.507.372 1.446.372s1.121-.047 1.446-.372c.235-.234.372-.544.372-.838 0-.295-.137-.605-.372-.839-.325-.324-.507-.371-1.446-.371s-1.121.047-1.446.371zm29.332 8.135l.396 2.382H29.215l.364-2.23c.2-1.227.392-2.317.427-2.421.048-.15 1.63-.183 7.523-.152l7.461.04.396 2.381zm6.66 5.406v.605H22.953V71.36h29.091v.605z" fill="#ECC63A"/></svg>