<svg width="75" height="75" viewBox="0 0 75 75" fill="none" xmlns="http://www.w3.org/2000/svg"><path fill-rule="evenodd" clip-rule="evenodd" d="M35.144.186C31.845.784 29.1 2.25 26.925 4.57c-1.483 1.583-2.643 3.52-3.222 5.38l-.26.831-10.206.076-10.207.075-.808.447c-.882.488-1.376.999-1.888 1.956L0 13.956v47.04l.334.623c.512.957 1.006 1.468 1.888 1.956l.808.447 12.285.041 12.284.041-.395 2.38-.395 2.378-2.831.076c-3.501.093-3.35 0-3.424 2.122l-.052 1.508-2.524.002c-1.7.002-2.643.063-2.89.19-.78.396-.728 1.689.08 2.057.537.244 44.127.244 44.663 0 .842-.383.842-1.696 0-2.078-.23-.105-1.338-.171-2.868-.171H54.47v-1.279c0-1.326-.17-1.947-.589-2.152-.135-.066-1.47-.155-2.967-.198l-2.723-.077-.395-2.379-.395-2.379 12.284-.04 12.285-.042.776-.409c.842-.443 1.4-1.023 1.92-1.994l.334-.622v-47.04l-.334-.623c-.512-.957-1.006-1.468-1.888-1.956l-.808-.447-10.197-.075-10.196-.076-.347-.983c-1.037-2.935-3.028-5.582-5.453-7.247-.872-.599-2.834-1.568-3.807-1.88-2.063-.661-4.783-.854-6.826-.484zm5.462 2.582c3.316.887 6.316 3.386 7.803 6.5.888 1.86 1.131 3.003 1.127 5.293-.004 2.255-.215 3.209-1.146 5.172-1.005 2.12-3.203 4.454-5.085 5.399-.874.439-.956.696-.956 3v2.084h-1.213v-6.118c0-4.226-.053-6.235-.17-6.494-.37-.808-1.665-.859-2.062-.081-.14.273-.188 1.94-.19 6.53l-.002 6.163h-2.424v-6.118c0-4.226-.053-6.235-.171-6.494-.369-.808-1.664-.859-2.062-.081-.14.273-.187 1.94-.19 6.53l-.001 6.163H32.65v-2.052c0-1.128-.07-2.182-.155-2.342-.086-.16-.546-.537-1.023-.839-3.001-1.898-4.891-4.36-5.735-7.472-.376-1.389-.377-4.537-.001-5.975 1.208-4.623 5.02-8.142 9.752-9.004 1.036-.189 4.05-.05 5.117.236zm-17.61 12.134c.145 2.802.713 4.75 2.061 7.063.813 1.394 2.968 3.664 4.3 4.526l.87.565v3.124l-.913.066c-1.383.1-1.426.179-1.485 2.714-.032 1.366.013 2.278.124 2.547.214.516.722.76 1.585.76h.66l.057 2.08c.052 1.9.091 2.146.462 2.853.555 1.063 1.545 1.834 2.862 2.229.142.042.292.318.354.648.343 1.82 1.739 2.993 3.567 2.994 1.817 0 3.066-1.024 3.551-2.917.147-.569.247-.685.74-.854 1.349-.463 2.463-1.622 2.831-2.944.082-.294.15-1.335.15-2.312v-1.777h.675c.847 0 1.366-.231 1.582-.705.22-.483.22-4.158 0-4.641-.216-.474-.735-.705-1.582-.705h-.674v-3.111l1.158-.827c2.206-1.574 4.122-4.02 5.11-6.522.558-1.416.866-2.964.963-4.854l.084-1.626h9.615c10.564 0 10.139-.037 10.7.913.227.382.248 2.17.248 20.324v19.904H2.349V34.513c0-18.091.023-19.943.246-20.32.561-.948.097-.909 10.68-.913l9.638-.004.084 1.626zm9.061-1.435c-.779.397-.728 1.69.082 2.058.255.116 1.978.17 5.361.17s5.106-.054 5.361-.17c.842-.383.842-1.696 0-2.078-.552-.252-10.307-.233-10.804.02zm12.716 19.774v.605H30.227v-1.21h14.546v.605zm-2.425 4.652c0 1.906-.225 2.532-1.06 2.949-.456.227-.99.264-3.788.264s-3.332-.037-3.788-.264c-.835-.416-1.06-1.043-1.06-2.95v-1.625h9.697v1.626zm-3.636 5.867c0 .408-.706.977-1.212.977s-1.212-.57-1.212-.977c0-.19.22-.233 1.212-.233s1.212.042 1.212.233zm33.94 14.703c0 1.907-.226 2.533-1.061 2.95-.5.249-2.443.264-34.091.264s-33.59-.015-34.09-.264c-.836-.417-1.061-1.043-1.061-2.95v-1.626H72.65v1.626zM5.144 58.42a1.218 1.218 0 00-.372.838c0 .295.137.605.372.84l.372.37h8.209l.372-.37c.492-.492.492-1.187 0-1.678l-.372-.372H5.517l-.372.372zm10.909 0a1.217 1.217 0 00-.372.838c0 .295.137.605.372.84.325.323.507.37 1.446.37s1.121-.047 1.446-.37a1.22 1.22 0 00.372-.84c0-.294-.137-.604-.372-.838-.325-.325-.507-.372-1.446-.372s-1.121.047-1.446.372zm29.332 8.136l.396 2.383H29.215l.364-2.231c.2-1.227.392-2.317.427-2.422.048-.15 1.63-.182 7.523-.151l7.461.04.396 2.381zm6.66 5.408v.605H22.953v-1.21h29.091v.605z" fill="#ECC63A"/></svg>