<svg width="28" height="28" viewBox="0 0 28 28" fill="none" xmlns="http://www.w3.org/2000/svg"><path d="M13.997 9.556a4.456 4.456 0 00-4.447 4.446 4.456 4.456 0 004.447 4.446 4.456 4.456 0 004.446-4.446 4.456 4.456 0 00-4.446-4.446zm13.335 4.446c0-1.841.017-3.666-.087-5.504-.103-2.134-.59-4.03-2.151-5.59C23.53 1.343 21.638.86 19.504.756 17.663.653 15.838.67 14 .67c-1.841 0-3.666-.017-5.504.086-2.134.104-4.029.59-5.59 2.152C1.342 4.472.858 6.364.755 8.498.65 10.34.668 12.164.668 14.002c0 1.838-.017 3.666.087 5.504.103 2.134.59 4.03 2.151 5.59 1.564 1.565 3.456 2.048 5.59 2.152 1.842.103 3.666.086 5.504.086 1.841 0 3.666.017 5.504-.086 2.134-.104 4.029-.59 5.59-2.152 1.564-1.564 2.048-3.456 2.151-5.59.107-1.838.087-3.663.087-5.504zm-13.335 6.841a6.832 6.832 0 01-6.841-6.841 6.832 6.832 0 016.84-6.841 6.832 6.832 0 016.842 6.841 6.832 6.832 0 01-6.841 6.841zm7.121-12.365a1.596 1.596 0 01-1.598-1.597c0-.884.714-1.598 1.598-1.598a1.596 1.596 0 011.477 2.21 1.596 1.596 0 01-1.477.985z"/></svg>