<svg width="18" height="18" viewBox="0 0 18 18" fill="#636363" xmlns="http://www.w3.org/2000/svg"><path fill-rule="evenodd" clip-rule="evenodd" d="M12.704 2.25A3.793 3.793 0 0116.5 6.037v5.926a3.793 3.793 0 01-3.796 3.787H5.295A3.793 3.793 0 011.5 11.963V6.038A3.788 3.788 0 015.295 2.25h7.41zm1.194 4.904l.06-.06a.58.58 0 00-.008-.75.63.63 0 00-.397-.195.57.57 0 00-.42.15L9.75 9a1.174 1.174 0 01-1.5 0L4.875 6.3a.573.573 0 00-.803.803l.098.097 3.413 2.663a2.357 2.357 0 002.932 0l3.383-2.708z"/></svg>