<svg width="18" height="18" viewBox="0 0 18 18" fill="none" xmlns="http://www.w3.org/2000/svg"><path fill-rule="evenodd" clip-rule="evenodd" d="M8.799 1.004a7.91 7.91 0 00-3.18.822A7.858 7.858 0 001.841 5.92a7.755 7.755 0 00.515 6.794c.03.053.056.101.056.106 0 .005-.253.756-.562 1.668l-.707 2.085L1 17l.036-.011 2.173-.69 2.138-.68.194.1c.782.399 1.596.66 2.454.785a7.952 7.952 0 003.49-.269 7.853 7.853 0 004.688-3.956 7.733 7.733 0 00.79-2.692c.025-.257.03-.359.036-.669a7.32 7.32 0 00-.058-1.105 7.732 7.732 0 00-2.22-4.51A7.722 7.722 0 0012.618 1.8 7.834 7.834 0 008.8 1.004zM7.056 4.997c.096.027.176.107.244.246.022.044.143.357.269.697.126.34.256.686.289.771.104.268.103.264.1.348-.003.072-.006.08-.05.167-.027.05-.07.125-.095.166a4.392 4.392 0 01-.412.468c-.135.137-.156.171-.156.256 0 .07.02.12.113.28.267.467.573.873.922 1.222.344.345.707.621 1.12.854.153.087.608.31.667.327.088.026.16.014.236-.038.06-.041.509-.535.666-.733.123-.155.133-.164.191-.193a.167.167 0 01.118-.023.643.643 0 01.135.029c.111.037.513.242 1.273.648.47.251.507.275.526.346.014.049.011.24-.004.345a2.498 2.498 0 01-.185.627.964.964 0 01-.206.261 1.964 1.964 0 01-.367.279c-.268.162-.575.28-.766.296a2.3 2.3 0 00-.181.028c-.319.06-.627.008-1.226-.209a16.488 16.488 0 01-1.176-.484c-1.095-.523-2.183-1.558-3.031-2.887l-.168-.258a5.028 5.028 0 01-.356-.634c-.23-.5-.334-.946-.319-1.36.02-.51.181-.957.483-1.332.08-.1.295-.318.363-.37a.95.95 0 01.124-.075.715.715 0 01.343-.078 3.1 3.1 0 01.516.013z" fill="#636363"/></svg>