<svg width="27" height="27" viewBox="0 0 27 27" fill="none" xmlns="http://www.w3.org/2000/svg"><path fill-rule="evenodd" clip-rule="evenodd" d="M10.71.025C6.22.312 2.244 3.328.66 7.65c-.75 2.04-.869 4.55-.319 6.725 1.08 4.27 4.59 7.628 8.871 8.488 3.26.654 6.682-.124 9.253-2.105.172-.133.333-.241.359-.241.025 0 1.447 1.406 3.16 3.125 1.713 1.718 3.181 3.16 3.261 3.202.439.234 1.054.201 1.38-.074.216-.182.374-.525.374-.812 0-.486-.053-.547-3.398-3.903l-3.176-3.185.248-.323a11.582 11.582 0 002.359-6.957c0-.974-.072-1.67-.257-2.51a11.46 11.46 0 00-3.103-5.679C17.279 1.003 14.107-.192 10.71.025zm2.296 2.368c3.013.519 5.48 2.344 6.807 5.037a9.28 9.28 0 01-2.17 11.07 9.217 9.217 0 01-6.798 2.29c-3.324-.252-6.139-2.157-7.655-5.179-.26-.517-.629-1.592-.745-2.168a9.545 9.545 0 01.438-5.252C3.91 5.494 6.32 3.32 9.096 2.585c1.186-.314 2.753-.39 3.91-.192zM11.042 6.68a1.144 1.144 0 00-.53.551c-.09.197-.102.38-.103 1.699l-.001 1.478h-1.42c-.82 0-1.507.025-1.628.058-.27.076-.583.353-.709.632-.256.564.028 1.239.626 1.489.168.07.47.086 1.668.086h1.463v1.497c0 1.626.012 1.704.32 2.014.23.23.452.319.794.319.43 0 .78-.214.978-.597.139-.27.141-.293.16-1.754l.018-1.48h2.891l.29-.144a1.07 1.07 0 00.535-1.372c-.113-.296-.445-.61-.73-.689-.123-.034-.792-.059-1.604-.059h-1.392V9.116c0-.71-.025-1.424-.056-1.586-.11-.585-.46-.894-1.04-.923-.259-.012-.413.008-.53.072z" fill="#fff"/></svg>