<svg width="20" height="21" viewBox="0 0 20 21" fill="none" xmlns="http://www.w3.org/2000/svg"><path d="M1.571 14.174c-.508.193-.769.764-.527 1.251a10 10 0 10.65-10.017c-.304.452-.12 1.053.36 1.31.48.256 1.072.072 1.385-.373a8.03 8.03 0 11-.542 8.377c-.254-.482-.817-.741-1.326-.548z" fill="#fff"/><path d="M1.25 10.193a.783.783 0 000 1.565v-1.565zm13.053 1.336a.783.783 0 000-1.107l-4.98-4.98a.783.783 0 10-1.107 1.107l4.427 4.427-4.427 4.427a.783.783 0 001.107 1.107l4.98-4.98zm-13.053.23h12.5v-1.566H1.25v1.565z" fill="#fff"/></svg>