<svg width="18" height="18" viewBox="0 0 18 18" fill="none" xmlns="http://www.w3.org/2000/svg"><path d="M13.196.004L10.706 0C7.909 0 6.1 1.739 6.1 4.43v2.042H3.598c-.217 0-.392.165-.392.367V9.8c0 .203.176.367.392.367H6.1v7.467c0 .203.175.367.392.367h3.266c.216 0 .391-.164.391-.367v-7.467h2.927c.217 0 .392-.164.392-.367l.001-2.96a.356.356 0 00-.115-.26.405.405 0 00-.277-.107H10.15V4.741c0-.832.212-1.255 1.368-1.255h1.677c.216 0 .392-.165.392-.367V.37c0-.203-.175-.367-.391-.367z" fill="#99A3AF"/></svg>