<svg width="16" height="16" viewBox="0 0 16 16" fill="none" xmlns="http://www.w3.org/2000/svg"><path d="M2.344 0h11.312A2.347 2.347 0 0116 2.344v11.312A2.347 2.347 0 0113.656 16H2.344A2.347 2.347 0 010 13.656V2.344A2.347 2.347 0 012.344 0zm5.625 12.188a4.223 4.223 0 004.218-4.22A4.223 4.223 0 007.97 3.75a4.223 4.223 0 00-4.22 4.219 4.223 4.223 0 004.219 4.218zm-4.688-7.5a1.408 1.408 0 000-2.813 1.407 1.407 0 000 2.812z" fill="#fff"/><path d="M3.281 2.813a.469.469 0 110 .938.469.469 0 010-.938zm4.688 1.875a3.285 3.285 0 013.281 3.28 3.285 3.285 0 01-3.281 3.282 3.285 3.285 0 01-3.282-3.281A3.285 3.285 0 017.97 4.687z" fill="#fff"/></svg>