<svg width="86" height="22" viewBox="0 0 86 22" fill="none" xmlns="http://www.w3.org/2000/svg"><path d="M0 .365h4.757v17.26h10.305v4.01H0V.365zM27.33 22c-2.134 0-4.062-.476-5.785-1.428a10.567 10.567 0 01-4.022-3.92c-.96-1.682-1.439-3.565-1.439-5.652s.48-3.96 1.439-5.622a10.5 10.5 0 014.022-3.95C23.268.476 25.195 0 27.33 0s4.052.476 5.755 1.428a10.501 10.501 0 014.023 3.95c.978 1.662 1.468 3.535 1.468 5.622 0 2.087-.49 3.97-1.468 5.652a10.567 10.567 0 01-4.023 3.92C31.381 21.524 29.463 22 27.33 22zm0-4.193c1.213 0 2.31-.284 3.288-.851a6.123 6.123 0 002.29-2.431c.568-1.033.852-2.208.852-3.525 0-1.317-.284-2.492-.852-3.525a5.913 5.913 0 00-2.29-2.4c-.979-.588-2.075-.882-3.289-.882-1.213 0-2.31.294-3.288.882-.979.567-1.752 1.367-2.32 2.4C21.173 8.508 20.9 9.683 20.9 11c0 1.317.274 2.492.822 3.525a6.333 6.333 0 002.32 2.43c.979.568 2.075.852 3.288.852zm28.707-7.141h4.346v8.63c-1.116.87-2.408 1.54-3.876 2.005a14.58 14.58 0 01-4.433.699c-2.134 0-4.052-.466-5.755-1.398a10.568 10.568 0 01-4.023-3.92c-.959-1.681-1.438-3.575-1.438-5.682s.48-3.99 1.438-5.652a10.232 10.232 0 014.052-3.92C48.071.476 50.008 0 52.162 0c1.8 0 3.435.314 4.903.942a9.731 9.731 0 013.7 2.735L57.71 6.594c-1.468-1.6-3.24-2.4-5.314-2.4-1.312 0-2.477.283-3.494.85a5.997 5.997 0 00-2.379 2.4c-.567 1.034-.851 2.219-.851 3.556 0 1.317.284 2.492.851 3.525a6.266 6.266 0 002.35 2.43c1.017.568 2.172.852 3.464.852 1.37 0 2.603-.304 3.7-.912v-6.23zM74.755 22c-2.134 0-4.062-.476-5.784-1.428a10.567 10.567 0 01-4.023-3.92c-.96-1.682-1.439-3.565-1.439-5.652s.48-3.96 1.439-5.622a10.5 10.5 0 014.023-3.95C70.692.476 72.62 0 74.755 0c2.133 0 4.052.476 5.754 1.428a10.5 10.5 0 014.023 3.95C85.51 7.04 86 8.913 86 11c0 2.087-.49 3.97-1.468 5.652a10.567 10.567 0 01-4.023 3.92C78.806 21.524 76.89 22 74.755 22zm0-4.193c1.213 0 2.31-.284 3.288-.851a6.123 6.123 0 002.29-2.431c.568-1.033.852-2.208.852-3.525 0-1.317-.284-2.492-.852-3.525a5.913 5.913 0 00-2.29-2.4c-.979-.588-2.075-.882-3.288-.882-1.214 0-2.31.294-3.289.882-.978.567-1.752 1.367-2.32 2.4-.547 1.033-.822 2.208-.822 3.525 0 1.317.275 2.492.823 3.525a6.334 6.334 0 002.32 2.43c.978.568 2.074.852 3.288.852z" fill="#292929"/></svg>